<svg width="585" height="88" viewBox="0 0 585 88" fill="none" xmlns="http://www.w3.org/2000/svg">
<circle cx="46.1992" cy="44" r="44" fill="white"/>
<path d="M4.43818 38.3564C3.97207 37.8406 3.54981 37.2867 3.17578 36.7007L4.43818 38.3564Z" fill="white"/>
<path d="M4.50003 49.9312C4.06238 50.4194 3.66399 50.9415 3.30859 51.4926L4.50003 49.9312Z" fill="white"/>
<path d="M78.5076 73.9988C86.1276 65.8714 90.3546 55.1399 90.324 43.9991C90.3238 41.6727 90.1416 39.3498 89.7789 37.0519C89.781 37.0485 89.7836 37.0455 89.7856 37.0422L89.7765 37.0363C88.3929 28.4389 84.4929 20.4444 78.5689 14.062C72.6449 7.67971 64.9626 3.19584 56.4921 1.17662C56.4664 1.15686 56.4418 1.13709 56.416 1.11733L56.3893 1.1529C53.0894 0.385341 49.7124 -0.0014829 46.3245 4.27179e-06C37.9166 0.000200658 29.6849 2.40929 22.6036 6.94213C15.5222 11.475 9.88784 17.9417 6.3673 25.577C2.84677 33.2123 1.58749 41.6964 2.73853 50.0251C3.88956 58.3538 7.40272 66.1783 12.8622 72.5725C12.8564 72.5848 12.8517 72.5972 12.846 72.6095L12.925 72.6468C13.2676 73.0454 13.619 73.4384 13.9793 73.8258L13.9771 73.8304L13.9902 73.8375C14.3791 74.2581 14.7748 74.674 15.1818 75.0817C15.1769 75.09 15.1723 75.0983 15.1674 75.1066L15.2688 75.1681C15.7336 75.6311 16.207 76.0823 16.6889 76.5218L16.6839 76.5613C16.7015 76.5635 16.7187 76.5647 16.7363 76.5667C17.366 77.14 18.0097 77.6927 18.6672 78.2248L18.6703 78.2929L18.6832 78.303C18.7085 78.3018 18.7338 78.2997 18.7591 78.2983C24.7652 83.1147 31.9269 86.2759 39.5328 87.4679C47.1388 88.6599 54.9242 87.8411 62.1158 85.0929L62.1261 85.0983C62.1281 85.0947 62.1298 85.0908 62.1318 85.0872C65.0678 83.9575 67.8725 82.5128 70.497 80.7784L70.7466 80.6244L70.7427 80.6175C73.1479 79.0049 75.3898 77.1611 77.4363 75.1123C77.7961 74.7528 78.1461 74.3862 78.4916 74.0166L78.5114 74.0087L78.5076 73.9988ZM77.5437 73.8697C76.5303 72.0016 76.0173 69.9032 76.0544 67.7783C76.0915 65.6534 76.6775 63.5742 77.7555 61.7426C78.8335 59.9111 80.3668 58.3894 82.2065 57.3254C84.0462 56.2615 86.1298 55.6913 88.255 55.6704C88.1427 56.0762 88.0227 56.4792 87.8992 56.881C86.0209 56.9609 84.1936 57.5156 82.5879 58.4933C80.9822 59.471 79.6505 60.8398 78.7174 62.4718C77.7842 64.1038 77.28 65.9457 77.2519 67.8255C77.2237 69.7052 77.6726 71.5614 78.5564 73.2206C78.4276 73.3625 78.2953 73.5021 78.1643 73.6426C77.9587 73.725 77.7524 73.8023 77.5437 73.8697ZM72.6773 77.8312C72.9643 77.8781 73.254 77.9121 73.5446 77.9397C73.3624 78.0866 73.1803 78.2336 72.9961 78.3773C72.8866 78.1961 72.7791 78.0145 72.6765 77.831L72.6773 77.8312ZM72.3925 77.3029C72.1573 76.8487 71.942 76.3875 71.7468 75.9193C72.725 76.1948 73.7365 76.3344 74.7528 76.3344C74.8855 76.3344 75.0187 76.332 75.1517 76.3273C75.2535 76.3237 75.3559 76.3168 75.458 76.3105C75.0027 76.7223 74.5397 77.1229 74.0692 77.5124C73.5059 77.4805 72.9455 77.4105 72.3917 77.3027L72.3925 77.3029ZM72.6192 78.6643C72.3516 78.8683 72.082 79.0688 71.8104 79.2658C70.4784 77.0709 69.5731 74.6441 69.1421 72.1132C69.3943 71.9083 69.6435 71.6998 69.8896 71.4876C69.9402 71.5271 69.9904 71.5667 70.0418 71.6044C70.4301 74.1037 71.3055 76.5023 72.6184 78.6641L72.6192 78.6643ZM61.8106 84.6767C61.2385 84.8944 60.6618 85.1 60.0804 85.2937C60.1199 85.2344 60.1595 85.1751 60.1974 85.1159C60.8143 84.1328 61.2733 83.059 61.5574 81.9337C61.8659 82.3313 62.1597 82.7426 62.4388 83.1674C62.2627 83.6837 62.0529 84.1879 61.8106 84.6767ZM46.7032 84.5108C45.5871 84.5111 44.4836 84.7469 43.4649 85.2026C42.4461 85.6584 41.5349 86.324 40.7909 87.1558C40.3465 87.0999 39.904 87.0354 39.463 86.9661C40.3029 85.8562 41.3866 84.9542 42.6305 84.3297C43.8743 83.7052 45.245 83.3748 46.6368 83.3641C48.0286 83.3534 49.4042 83.6627 50.6575 84.268C51.9108 84.8734 53.0082 85.7586 53.8651 86.8554C53.4227 86.9323 52.9784 87.0005 52.5327 87.0639C51.79 86.2591 50.8886 85.6167 49.8854 85.1773C48.8823 84.7379 47.799 84.511 46.7038 84.5108H46.7032ZM51.9564 87.1424C51.4351 87.2094 50.9118 87.2671 50.3866 87.3153C49.3005 86.5323 47.9931 86.1158 46.6542 86.1262C45.3154 86.1367 44.0146 86.5735 42.9409 87.3734C42.4146 87.3339 41.8906 87.2821 41.3682 87.2232C42.0565 86.5199 42.8771 85.9596 43.7828 85.5746C44.6885 85.1896 45.6614 84.9876 46.6455 84.98C47.6295 84.9725 48.6054 85.1597 49.5169 85.5308C50.4283 85.9019 51.2574 86.4496 51.9564 87.1424ZM46.7032 82.8956C45.1857 82.8969 43.6903 83.2591 42.3404 83.9522C40.9905 84.6454 39.8248 85.6496 38.9395 86.8821C38.5455 86.8151 38.1528 86.7437 37.7616 86.6664C38.7199 85.1863 40.0306 83.9672 41.5762 83.1186C43.1219 82.2701 44.8541 81.8186 46.6173 81.8047C48.3805 81.7909 50.1195 82.215 51.6783 83.0392C53.2371 83.8633 54.5669 85.0616 55.5483 86.5265C55.1592 86.6102 54.7685 86.6884 54.3762 86.7611C53.4879 85.5625 52.3313 84.5887 50.9989 83.9174C49.6666 83.2462 48.1956 82.8962 46.7038 82.8956H46.7032ZM46.7032 81.3354C44.8154 81.3273 42.9571 81.8037 41.306 82.719C39.6549 83.6343 38.2663 84.9579 37.2729 86.5632C36.8608 86.4764 36.4505 86.3839 36.0419 86.2856C36.0844 86.2132 36.1249 86.1391 36.1684 86.0681C36.1848 86.0577 36.2004 86.046 36.2174 86.0365C36.2107 86.0304 36.2048 86.0235 36.1976 86.0168C37.0147 84.6833 38.0786 83.5178 39.3322 82.5828C39.3468 82.5899 39.361 82.5982 39.3759 82.6051C39.3796 82.5812 39.3889 82.5588 39.3956 82.5353C40.778 81.5185 42.3575 80.8014 44.033 80.43C45.7084 80.0586 47.4429 80.041 49.1255 80.3784C50.8082 80.7158 52.4018 81.4007 53.8046 82.3894C55.2073 83.378 56.3882 84.6485 57.2718 86.1197C56.8642 86.2249 56.4551 86.3255 56.0438 86.419C55.0411 84.8535 53.6593 83.5667 52.0264 82.678C50.3936 81.7893 48.5628 81.3275 46.7038 81.3354H46.7032ZM12.0563 58.3047C11.4718 57.8875 10.8532 57.5201 10.2071 57.2065C10.1978 56.5837 10.3155 55.9654 10.553 55.3895C10.881 54.5486 11.4863 53.8449 12.2688 53.395C13.2329 52.8517 14.3585 52.6676 15.4455 52.8756C16.2839 53.0659 17.0499 53.4933 17.652 54.107L17.777 54.2335L17.9495 54.1908C18.5713 54.0238 19.1668 53.771 19.7189 53.4397C19.7991 53.3935 19.8806 53.3442 19.9659 53.2925C21.3568 52.4352 22.1025 51.6717 22.4455 51.2582L23.8753 51.9652C23.5393 52.4331 22.6593 53.4692 20.8012 54.6138C18.8791 55.7977 17.5906 55.886 17.0482 55.8522C16.8423 55.4887 16.563 55.1719 16.2281 54.922C15.8932 54.6721 15.5101 54.4945 15.1029 54.4005C14.5169 54.2691 12.6916 54.2772 12.0018 55.9766C11.8397 56.3449 11.7605 56.7444 11.7699 57.1467C11.7794 57.549 11.8771 57.9444 12.0563 58.3047ZM2.81972 43.9991C2.81972 43.9325 2.82189 43.8663 2.82229 43.7997C2.98041 43.8028 3.13899 43.8045 3.29803 43.8048C5.63049 43.8036 7.95116 43.474 10.1917 42.8256C10.1785 43.2257 10.1704 43.6271 10.1704 44.0303C10.1704 44.4428 10.1775 44.8535 10.1919 45.2627C7.79807 44.5726 5.31413 44.2461 2.82327 44.2942C2.82268 44.1956 2.81972 44.0975 2.81972 43.9991ZM9.44676 22.7411C8.914 23.6695 8.13396 24.4318 7.19354 24.943C8.08035 23.1254 9.09397 21.3724 10.2269 19.6971C10.2533 20.7644 9.98321 21.8181 9.44676 22.7411ZM6.86801 25.6231C8.12167 25.0873 9.16805 24.1598 9.85048 22.9795C10.5329 21.7993 10.8147 20.4297 10.6536 19.0759C10.9521 18.6507 11.2591 18.2306 11.5747 17.8157C11.8407 18.7726 11.9131 19.7729 11.7878 20.7582C11.6624 21.7434 11.3417 22.6938 10.8445 23.5536C10.3472 24.4133 9.68347 25.1652 8.89204 25.7653C8.1006 26.3654 7.1974 26.8015 6.23532 27.0482C6.43772 26.5697 6.64861 26.0947 6.86801 25.6231ZM6.01415 27.5798C7.10438 27.3508 8.13415 26.8947 9.03637 26.2412C9.93859 25.5878 10.693 24.7515 11.2506 23.7871C11.8081 22.8226 12.1562 21.7515 12.2722 20.6435C12.3882 19.5356 12.2696 18.4156 11.9239 17.3565C12.1969 17.0058 12.4757 16.6587 12.7602 16.3153C13.299 17.6056 13.5327 19.0029 13.443 20.3983C13.3533 21.7937 12.9426 23.1496 12.2429 24.3602C11.5433 25.5709 10.5735 26.6037 9.40929 27.3781C8.24504 28.1525 6.9177 28.6477 5.5307 28.825C5.68566 28.4075 5.84668 27.9924 6.01376 27.5798H6.01415ZM5.34787 29.3166C6.85145 29.1633 8.29719 28.6554 9.56632 27.8347C10.8354 27.014 11.8917 25.9039 12.6484 24.5956C13.405 23.2872 13.8405 21.8181 13.9189 20.3087C13.9973 18.7994 13.7165 17.293 13.0995 15.9133C13.3553 15.6117 13.6155 15.3129 13.8801 15.0169C14.6775 16.5953 15.069 18.3475 15.0192 20.1152C14.9694 21.8829 14.4799 23.6103 13.595 25.1413C12.7101 26.6724 11.4576 27.9587 9.95073 28.8842C8.44387 29.8097 6.73014 30.3451 4.96443 30.442C5.08756 30.0655 5.21446 29.6902 5.34787 29.317V29.3166ZM4.81224 30.9229C6.68776 30.8488 8.51401 30.3012 10.1208 29.331C11.7277 28.3609 13.0628 26.9998 14.0018 25.3746C14.9409 23.7494 15.4532 21.913 15.4912 20.0364C15.5292 18.1597 15.0915 16.3041 14.219 14.6422C14.5023 14.3332 14.7906 14.0279 15.0838 13.7263C15.8825 15.1307 16.3969 16.6786 16.5976 18.2817C16.5794 18.2938 16.5604 18.3049 16.5422 18.3173C16.5663 18.337 16.589 18.3582 16.6104 18.3808C16.8102 20.101 16.6453 21.8439 16.1266 23.4962C15.6079 25.1484 14.7469 26.6729 13.5998 27.9702C12.4527 29.2675 11.0451 30.3087 9.46882 31.0258C7.89252 31.7429 6.18284 32.12 4.45113 32.1323C4.56537 31.7273 4.68574 31.3243 4.81224 30.9233V30.9229ZM20.1047 9.97585C19.8477 9.93316 19.5908 9.90252 19.3313 9.87702C19.4939 9.74776 19.6573 9.61968 19.8215 9.49279C19.9177 9.65289 20.0134 9.81377 20.1047 9.97624V9.97585ZM20.3911 10.5042C20.6283 10.9603 20.8461 11.4234 21.0447 11.8935C19.9226 11.5735 18.7572 11.4323 17.5912 11.475C17.5344 11.477 17.4777 11.4819 17.421 11.4851C17.8753 11.0802 18.3365 10.6849 18.8045 10.2992C19.3373 10.3333 19.8672 10.4019 20.3911 10.5046V10.5042ZM20.1974 9.20639C20.4658 9.004 20.7359 8.80509 21.0078 8.60968C22.353 10.8317 23.2613 13.2903 23.6838 15.8532C23.4499 16.0418 23.2175 16.2317 22.9884 16.4264C22.9141 16.3655 22.8416 16.3017 22.7649 16.244C22.3765 13.7532 21.5043 11.3625 20.1974 9.20679V9.20639ZM46.2753 3.53163C47.3913 3.53132 48.4947 3.29561 49.5135 2.83988C50.5322 2.38416 51.4433 1.71866 52.1874 0.886866C52.6297 0.946161 53.0705 1.01204 53.5097 1.08452C52.6637 2.20002 51.5712 3.1048 50.3177 3.72817C49.0641 4.35154 47.6834 4.67661 46.2833 4.67799C44.8833 4.67937 43.502 4.35701 42.2472 3.73611C40.9924 3.11521 39.8981 2.21258 39.0499 1.09875C39.4893 1.02522 39.9303 0.958678 40.3732 0.89912C41.1172 1.72748 42.0272 2.38998 43.0441 2.84353C44.0609 3.29708 45.1618 3.53153 46.2753 3.53163ZM40.9424 0.822036C41.4593 0.75859 41.9789 0.707398 42.4997 0.662334C43.5912 1.47784 44.9175 1.91785 46.28 1.91646C47.6425 1.91507 48.9679 1.47236 50.0577 0.654625C50.5795 0.698702 51.0997 0.749894 51.6176 0.812747C50.9229 1.52425 50.0931 2.08982 49.1769 2.47627C48.2607 2.86273 47.2765 3.06227 46.2821 3.06319C45.2877 3.06411 44.3032 2.86639 43.3862 2.48164C42.4693 2.09688 41.6384 1.53284 40.9424 0.822628V0.822036ZM46.2753 5.14644C47.7901 5.14528 49.283 4.78453 50.6312 4.09387C51.9794 3.4032 53.1443 2.40236 54.0303 1.17366C54.4228 1.24336 54.8137 1.31867 55.203 1.39957C54.2368 2.88391 52.9156 4.10381 51.359 4.94881C49.8025 5.79381 48.0598 6.23723 46.2887 6.23892C44.5176 6.24061 42.774 5.80051 41.2159 4.95847C39.6577 4.11644 38.3342 2.89906 37.3652 1.41657C37.7536 1.33566 38.1433 1.2599 38.5343 1.18927C39.4197 2.41406 40.583 3.41135 41.9286 4.09925C43.2743 4.78715 44.764 5.14604 46.2753 5.14644ZM46.2753 6.7067C48.1586 6.7148 50.0126 6.24072 51.6608 5.3296C53.3091 4.41848 54.6967 3.10065 55.6916 1.50156C55.9057 1.54847 56.1191 1.59709 56.332 1.64743C56.4855 1.76938 56.6363 1.89429 56.7812 2.02553C55.9849 3.3239 54.9546 4.46322 53.7425 5.3856C53.7056 5.36583 53.6012 5.45379 53.5753 5.5123C52.1838 6.53419 50.5933 7.25247 48.9066 7.62063C47.2199 7.98879 45.4747 7.99863 43.784 7.64949C42.0932 7.30036 40.4947 6.60005 39.0918 5.5939C37.6889 4.58775 36.5129 3.29819 35.6401 1.80871C36.0485 1.70619 36.4585 1.60981 36.8698 1.51955C37.866 3.11378 39.2528 4.42716 40.8988 5.33515C42.5448 6.24314 44.3954 6.71566 46.2753 6.70789V6.7067ZM82.2565 19.4564C83.4537 21.2006 84.521 23.0305 85.4497 24.9313C84.4484 24.4212 83.615 23.6337 83.049 22.663C82.4829 21.6922 82.2081 20.5791 82.2572 19.4564H82.2565ZM82.63 22.8757C83.3266 24.0913 84.4109 25.0378 85.7094 25.5638L85.7304 25.5126C85.9578 25.9971 86.1757 26.4858 86.3842 26.9788C85.3991 26.7464 84.4715 26.316 83.658 25.7137C82.8445 25.1115 82.1621 24.3499 81.6522 23.4755C81.1424 22.6011 80.8158 21.6321 80.6924 20.6275C80.569 19.6229 80.6513 18.6037 80.9344 17.6319C81.2605 18.0582 81.5801 18.4885 81.8892 18.9249L81.8329 18.9178C81.6543 20.2889 81.9346 21.6806 82.63 22.8757ZM81.23 23.6829C81.7961 24.663 82.565 25.5107 83.4854 26.1693C84.4058 26.8279 85.4564 27.2822 86.5666 27.5016L86.5785 27.4407C86.7554 27.8704 86.9232 28.3038 87.0861 28.7393C85.6795 28.5812 84.3294 28.0964 83.1435 27.3237C81.9576 26.5509 80.9688 25.5116 80.2561 24.2887C79.5434 23.0659 79.1264 21.6933 79.0386 20.2806C78.9507 18.8679 79.1943 17.4542 79.75 16.1524C80.0391 16.4981 80.3228 16.8473 80.6011 17.2L80.5786 17.1925C80.2211 18.2587 80.0943 19.3888 80.2066 20.5077C80.319 21.6267 80.6678 22.709 81.23 23.6829ZM79.8315 24.4909C80.5975 25.8145 81.6694 26.9355 82.9574 27.76C84.2454 28.5844 85.7121 29.0885 87.2349 29.23L87.2418 29.1571C87.3846 29.5524 87.5223 29.9496 87.6549 30.3487C85.8716 30.2732 84.1359 29.7505 82.6075 28.8286C81.0791 27.9066 79.8072 26.6152 78.9086 25.0729C78.01 23.5307 77.5137 21.7873 77.4653 20.003C77.4169 18.2188 77.818 16.451 78.6317 14.8624C78.897 15.1558 79.1576 15.4523 79.4136 15.7518C78.7824 17.1365 78.491 18.6519 78.5637 20.172C78.6363 21.6921 79.071 23.1728 79.8315 24.4909ZM78.4809 25.2707C79.4246 26.922 80.7792 28.3014 82.4131 29.275C84.047 30.2486 85.9048 30.7833 87.8063 30.8272C87.9327 31.2268 88.0534 31.6281 88.1684 32.0313C86.4286 32.0387 84.707 31.6777 83.1168 30.972C81.5266 30.2663 80.1038 29.2319 78.942 27.9369C77.7802 26.6419 76.9058 25.1156 76.3762 23.4584C75.8466 21.8012 75.6739 20.0506 75.8694 18.3219L75.8739 18.3177L75.8701 18.3153C76.0607 16.6486 76.5901 15.0385 77.4259 13.584C77.7189 13.8836 78.0072 14.1867 78.2908 14.4932C77.3982 16.1559 76.9469 18.0198 76.9802 19.9067C77.0135 21.7936 77.5302 23.6405 78.4809 25.2707ZM89.6274 39.7806C89.5144 39.7824 89.4013 39.7848 89.2885 39.7848C86.8416 39.7849 84.414 39.3522 82.1179 38.5066C82.0626 38.1488 82.0019 37.7931 81.9361 37.4393L81.9954 37.4148C84.2741 38.3075 86.6998 38.7657 89.1472 38.7657C89.2701 38.7657 89.3934 38.7631 89.5168 38.761C89.5577 39.0997 89.5946 39.4396 89.6274 39.7806ZM89.3648 50.3935C89.2124 50.1818 89.0558 49.9731 88.8904 49.7703C89.076 49.7668 89.2622 49.7676 89.4484 49.7689C89.4225 49.9773 89.3952 50.1858 89.3648 50.3935ZM88.3724 55.1992C88.3064 55.1992 88.2409 55.2032 88.1747 55.2043C87.9924 54.5749 87.7464 53.9656 87.4406 53.3859C86.8136 52.1577 85.8988 51.0994 84.7743 50.3012C85.2414 50.1887 85.7137 50.0937 86.1911 50.0164C87.0868 50.8359 87.8356 51.8028 88.4048 52.8752C88.5364 53.1237 88.656 53.377 88.7661 53.63C88.6475 54.1566 88.5168 54.6796 88.3791 55.2002L88.3724 55.1992ZM81.0075 55.1865C80.3187 53.4867 78.4922 53.479 77.9062 53.6105C77.499 53.7045 77.1159 53.882 76.7811 54.132C76.4462 54.3819 76.167 54.6987 75.9611 55.0622C75.4187 55.096 74.1302 55.0077 72.2081 53.8237C70.3502 52.6789 69.47 51.6429 69.134 51.1752L70.5638 50.4682C70.9065 50.8823 71.6523 51.6452 73.0433 52.5024C73.1287 52.5542 73.21 52.6034 73.2902 52.6497C73.8424 52.9809 74.4379 53.2337 75.0598 53.4008L75.2323 53.4435L75.3572 53.317C75.9594 52.7033 76.7254 52.2758 77.5638 52.0856C78.6508 51.8776 79.7763 52.0617 80.7405 52.605C81.5229 53.055 82.1283 53.7586 82.4563 54.5995C82.7025 55.1949 82.8202 55.8356 82.8016 56.4796C82.1316 56.8041 81.4913 57.1863 80.8877 57.622C81.0957 57.2533 81.2149 56.8412 81.2357 56.4184C81.2564 55.9957 81.1783 55.5738 81.0075 55.1865ZM57.067 78.5936L57.0482 78.5956C57.325 78.5094 57.603 78.4218 57.8784 78.3293C57.9916 78.4133 58.1067 78.4951 58.2179 78.5821C58.362 80.1959 57.9724 81.8124 57.1087 83.1832C56.9002 83.515 56.6664 83.8303 56.4094 84.1262C56.1572 83.8329 55.8908 83.5544 55.6149 83.2868C55.8053 83.0619 55.9799 82.8241 56.1377 82.5752C56.8841 81.3893 57.2113 79.9874 57.067 78.5936ZM58.7119 78.9814C59.0795 79.2889 59.4361 79.6104 59.7817 79.9459C59.728 81.4042 59.277 82.82 58.4773 84.0406C58.1627 84.5418 57.8 85.0112 57.3943 85.442C57.1792 85.1144 56.9507 84.7986 56.7091 84.4944C57.0031 84.1628 57.2693 83.8075 57.5052 83.4323C58.3438 82.1026 58.7643 80.552 58.7127 78.9808L58.7119 78.9814ZM55.7408 82.326C55.598 82.5492 55.4401 82.7624 55.2684 82.9642C55.0241 82.744 54.7743 82.5304 54.5144 82.3302C55.0449 81.9988 55.512 81.5755 55.8938 81.08C56.1886 80.7024 56.425 80.2827 56.595 79.8348C56.5049 80.7197 56.2127 81.572 55.7408 82.326ZM35.643 83.5637C35.9011 83.9732 36.1951 84.359 36.5216 84.7164C36.2865 85.0255 36.065 85.3467 35.8571 85.6799C34.3822 84.1636 33.4842 82.1791 33.3187 80.0702C33.6806 79.7101 34.0545 79.3638 34.4427 79.0355C34.3726 80.6319 34.7914 82.2117 35.643 83.5637ZM36.0405 83.3145C35.1613 81.9191 34.7744 80.2696 34.9414 78.6287C35.0216 78.5653 35.1042 78.505 35.1861 78.4437C35.4882 78.5422 35.7921 78.6365 36.0978 78.7268L36.0834 78.7252C35.9377 80.1191 36.2656 81.5215 37.0143 82.7063C37.1863 82.9808 37.3787 83.242 37.5899 83.4876C37.3206 83.761 37.0631 84.0472 36.8177 84.346C36.5302 84.0245 36.2702 83.6795 36.0405 83.3145ZM29.7491 75.5213C29.7222 75.5458 29.6965 75.5717 29.67 75.5962C26.9988 74.179 24.5176 72.4296 22.2854 70.3897C22.6448 70.164 22.9748 69.8946 23.2679 69.5876C27.1116 73.0685 31.6916 75.6368 36.6663 77.1009C36.579 77.4765 36.5347 77.8607 36.5344 78.2463C36.5344 78.2878 36.5386 78.3283 36.5396 78.3696C34.3168 77.7318 32.1616 76.8783 30.1046 75.8215C30.1173 75.8101 30.1294 75.7978 30.142 75.7863C30.0077 75.7025 29.8768 75.6142 29.7491 75.5213ZM29.3109 75.9354C27.7073 77.4657 26.3161 79.2039 25.1742 81.1037C26.2337 79.1562 27.0277 77.0755 27.535 74.9173C28.1167 75.273 28.7087 75.6124 29.3109 75.9354ZM19.2366 70.4294C18.575 70.3421 17.9407 70.1103 17.3787 69.7505C17.4391 68.9975 17.4329 68.2406 17.3599 67.4887C17.5723 67.8635 17.8708 68.1825 18.2306 68.4193C18.5905 68.6562 19.0015 68.8041 19.4297 68.851C21.2465 69.1043 22.1668 67.5239 22.3459 66.9509C22.4679 66.5515 22.5055 66.1311 22.4564 65.7164C22.4074 65.3017 22.2727 64.9017 22.0608 64.5418C22.3018 64.0544 23.0218 62.9843 25.009 61.9112C26.9511 60.8637 28.2983 60.6243 28.8632 60.5706L28.7584 62.1939C28.2353 62.2814 27.2089 62.5423 25.7723 63.3177C25.6801 63.368 25.5915 63.4176 25.5065 63.4663C24.9425 63.7794 24.4251 64.1697 23.9692 64.626L23.8466 64.754L23.8935 64.9252C24.1243 65.753 24.1119 66.6298 23.8579 67.4508C23.4943 68.4958 22.7723 69.3781 21.8199 69.9412C21.0395 70.3933 20.1282 70.5656 19.2366 70.4294ZM19.9086 71.0959C19.0213 71.3914 18.0749 71.4649 17.1526 71.3099C17.2119 71.0196 17.2662 70.728 17.3058 70.4349C17.8772 70.7532 18.5032 70.9615 19.1514 71.049C19.4023 71.0838 19.6554 71.0994 19.9086 71.0959ZM22.2856 50.485L22.1375 50.6348C22.1375 50.6348 21.5373 51.5901 19.6539 52.7509C19.5612 52.807 19.4839 52.8539 19.4074 52.8979C18.9541 53.1679 18.4705 53.383 17.9665 53.5389C17.3009 52.9077 16.4775 52.4677 15.5828 52.2651C15.4943 52.2453 15.3996 52.2289 15.302 52.2143C13.9231 46.9899 13.8869 41.5018 15.1968 36.2597C16.0879 36.0564 16.908 35.6173 17.5712 34.9884C18.0752 35.1441 18.5589 35.3592 19.0121 35.6292C19.0886 35.6733 19.1659 35.7201 19.2586 35.7762C21.142 36.937 21.7418 37.8925 21.7422 37.8923L21.8903 38.0421L27.1535 35.4432L27.0164 35.1633C26.8642 34.8526 26.2574 33.762 24.6878 32.4025C24.8044 32.1772 25.4693 31.0478 25.4693 31.0478C27.42 31.7228 28.6758 31.7064 29.0237 31.6845L29.336 31.6647L28.967 25.7731L28.7667 25.7522C28.7555 25.7522 27.6237 25.7103 25.6779 24.6599C25.5909 24.6123 25.5065 24.5655 25.4261 24.519C24.9649 24.2613 24.5363 23.9495 24.1492 23.5901C24.3602 22.7132 24.3342 21.796 24.0739 20.9324C27.8347 17.2971 32.4262 14.6351 37.4496 13.1774C38.0702 13.8389 38.856 14.3229 39.7261 14.5793C39.8441 15.0935 39.9007 15.6198 39.8945 16.1473C39.8945 16.2357 39.8929 16.3252 39.8907 16.4345C39.8314 18.646 39.3053 19.6441 39.3057 19.6443L39.2504 19.8477L44.1385 23.0977L44.3118 22.8386C44.5043 22.551 45.1433 21.4793 45.5325 19.439C45.7857 19.4267 47.0963 19.4358 47.0963 19.4358C47.4916 21.4617 48.1348 22.5399 48.3281 22.8301L48.502 23.0902L53.414 19.8163L53.3318 19.6325C53.3265 19.6226 52.7948 18.6227 52.7276 16.4124C52.7252 16.3135 52.7234 16.2169 52.7232 16.124C52.7149 15.5958 52.7698 15.0684 52.8867 14.5532C53.7565 14.2943 54.5413 13.8074 55.1597 13.1432C60.1226 14.5641 64.67 17.1601 68.4167 20.7115C68.3945 20.7719 68.3742 20.8312 68.3559 20.8893C68.0843 21.7653 68.0541 22.6982 68.2685 23.5899C67.8813 23.9493 67.4526 24.2611 66.9915 24.5188C66.911 24.5653 66.8266 24.6121 66.7399 24.6597C64.7938 25.7101 63.662 25.7518 63.651 25.752L63.4507 25.7729L63.0815 31.6645L63.394 31.6843C63.7419 31.7062 64.9976 31.7226 66.9484 31.0476C66.9484 31.0476 67.6133 32.177 67.7297 32.4023C66.1603 33.7618 65.5536 34.8532 65.4012 35.1631L65.2642 35.443L70.5271 38.0421L70.6753 37.8923C70.6753 37.8923 71.2754 36.937 73.1588 35.7762C73.2517 35.7201 73.3289 35.6733 73.4054 35.6292C73.8586 35.3592 74.3423 35.1441 74.8463 34.9884C75.512 35.6194 76.3354 36.0594 77.23 36.2621C77.3253 36.2834 77.4276 36.3016 77.5336 36.3164C78.7609 41.2796 78.7863 46.464 77.6075 51.4389C77.5456 51.4498 77.4855 51.4614 77.4276 51.4745C76.533 51.6771 75.7096 52.1171 75.044 52.7483C74.54 52.5925 74.0563 52.3773 73.6031 52.1073C73.5266 52.0633 73.4493 52.0164 73.3564 51.9603C71.473 50.7995 70.8733 49.844 70.8729 49.8442L70.7247 49.6944L65.4613 52.2933L65.5982 52.5732C65.7506 52.8841 66.3574 53.9745 67.9268 55.334C67.8103 55.5593 67.6896 55.7945 67.567 56.0297L67.1454 56.6887C65.1946 56.0137 63.9389 56.0301 63.5911 56.0521L63.2786 56.0718L63.6478 61.9634L63.848 61.9844C63.8591 61.9844 64.9908 62.0263 66.9369 63.0766C67.0237 63.1242 67.1081 63.1711 67.1885 63.2175C67.6497 63.4752 68.0784 63.787 68.4655 64.1465C68.2511 65.0381 68.2813 65.9711 68.5529 66.847C68.5806 66.9351 68.6146 67.0272 68.6517 67.1211C64.9711 70.6813 60.4931 73.3106 55.5908 74.79C55.5876 74.7864 55.5844 74.7825 55.5813 74.7791C54.9573 74.1069 54.1636 73.6152 53.2838 73.356C53.1657 72.8419 53.1093 72.3155 53.1156 71.788C53.1156 71.6997 53.1172 71.6102 53.1193 71.5009C53.1786 69.2893 53.7048 68.2912 53.7044 68.291L53.7595 68.0876L48.8716 64.8371L48.6983 65.0962C48.5058 65.3838 47.8668 66.4554 47.4776 68.4958C47.2242 68.508 45.9138 68.4989 45.9138 68.4989C45.5185 66.473 44.8753 65.3948 44.6818 65.1047L44.5079 64.8446L39.596 68.1181L39.6783 68.3019C39.6836 68.3118 40.2153 69.3117 40.2825 71.522C40.2849 71.6208 40.2866 71.7175 40.2868 71.8104C40.2952 72.3386 40.2403 72.8659 40.1234 73.3811C39.2443 73.6427 38.4522 74.1367 37.8306 74.8111C37.7877 74.8578 37.7448 74.9078 37.702 74.9598C32.767 73.5718 28.2361 71.0225 24.488 67.5251C24.7298 66.6813 24.749 65.7893 24.5437 64.9359C24.9308 64.5765 25.3595 64.2646 25.8206 64.0069C25.901 63.9605 25.9854 63.9136 26.0724 63.866C28.0182 62.8157 29.15 62.774 29.1613 62.7738L29.3615 62.7528L29.7305 56.8612L29.4182 56.8415C29.0703 56.8195 27.8145 56.8031 25.8638 57.4781C25.8638 57.4781 25.1853 56.3223 25.0823 56.1234C26.6519 54.764 27.2587 53.6735 27.4109 53.3626L27.548 53.0827L22.2856 50.485ZM7.14314 33.4384C6.96405 33.1004 6.81115 32.7492 6.68577 32.3879C7.06684 32.3175 7.44277 32.2302 7.81357 32.1258C7.91039 32.3916 8.02482 32.6506 8.1561 32.9012C8.80918 34.1413 9.85968 35.1263 11.1392 35.6983L11.1537 35.6661C11.0801 35.9753 11.0096 36.2856 10.944 36.5977C10.8424 36.6413 10.741 36.686 10.638 36.7269C9.13945 36.0504 7.90953 34.8931 7.14314 33.4384ZM10.0342 36.9554C9.57813 37.1195 9.1153 37.2664 8.64568 37.3962C7.39424 36.6191 6.38105 35.5123 5.71728 34.1972C5.44466 33.6817 5.22194 33.1413 5.05218 32.5834C5.44419 32.5624 5.83291 32.5239 6.21833 32.4679C6.35607 32.878 6.52715 33.2762 6.72985 33.6584C7.47125 35.0672 8.62372 36.2171 10.0342 36.9554ZM11.6065 32.55C12.2953 34.2498 14.1216 34.2575 14.7076 34.126C15.1148 34.0321 15.4979 33.8545 15.8328 33.6046C16.1677 33.3546 16.447 33.0379 16.6529 32.6743C17.1953 32.6405 18.4838 32.7288 20.4059 33.9128C22.2638 35.0576 23.144 36.0937 23.48 36.5613L22.0502 37.2683C21.7072 36.8532 20.9615 36.0913 19.5706 35.2341C19.4853 35.1823 19.4038 35.1331 19.3236 35.0868C18.7715 34.7556 18.176 34.5028 17.5542 34.3357L17.3817 34.2931L17.2567 34.4195C16.6546 35.0332 15.8886 35.4607 15.0502 35.6509C13.9632 35.859 12.8376 35.675 11.8735 35.1315C11.091 34.6816 10.4857 33.9779 10.1577 33.137C9.92869 32.581 9.81097 31.9854 9.81123 31.384C10.4345 31.0908 11.033 30.7478 11.601 30.3582C11.4526 30.7047 11.3766 31.0778 11.3777 31.4547C11.3788 31.8316 11.4569 32.2043 11.6073 32.55H11.6065ZM36.1209 9.81437C36.1298 10.2386 36.1915 10.6601 36.3046 11.0691C31.2725 12.6115 26.6604 15.2855 22.8216 18.8862C22.5231 18.5821 22.1879 18.3165 21.8237 18.0956C25.8769 14.2559 30.7736 11.4197 36.1209 9.81437ZM27.5212 13.1513C27.0234 11.0432 26.2523 9.00923 25.2274 7.10101C26.3498 8.95148 27.7092 10.6473 29.2712 12.1455C28.6774 12.4642 28.0941 12.7995 27.5212 13.1513ZM34.2581 9.06428C33.8875 8.751 33.5293 8.42132 33.1823 8.07879C33.2298 6.60638 33.6821 5.17552 34.4895 3.94334C34.8001 3.44898 35.1575 2.98566 35.5569 2.55978C35.7707 2.88854 35.9979 3.20557 36.2385 3.51088C35.9515 3.8364 35.6915 4.18483 35.4612 4.5527C34.6116 5.89963 34.192 7.47318 34.2581 9.06428ZM35.8591 4.80095C36.0617 4.4771 36.2887 4.16919 36.5382 3.8799C36.7896 4.17479 37.055 4.45506 37.3304 4.72426C37.1488 4.94083 36.9818 5.1693 36.8307 5.40813C36.0838 6.59397 35.7566 7.99627 35.9018 9.39021L35.9164 9.38882C35.6167 9.47935 35.3181 9.57205 35.0216 9.66988C34.9339 9.60328 34.8437 9.53924 34.7572 9.47065C34.5947 7.83484 34.9824 6.19156 35.8591 4.80095ZM57.4109 4.55191C57.1352 4.11252 56.8175 3.70093 56.4622 3.32291C56.6976 3.01319 56.9186 2.69043 57.1269 2.3568C58.642 3.88446 59.5671 5.89928 59.7383 8.04401C59.3756 8.40492 59.0006 8.75219 58.6117 9.08108C58.6764 7.48489 58.2578 5.90633 57.4107 4.55191H57.4109ZM57.0133 4.80075C57.8873 6.1987 58.274 7.84665 58.113 9.48745C58.0142 9.56474 57.9134 9.63727 57.8137 9.71238C57.451 9.59089 57.0858 9.47493 56.7182 9.36451L56.9731 9.39001C57.1174 7.99593 56.7899 6.59375 56.0432 5.40774C55.8518 5.10415 55.6353 4.81709 55.3961 4.54954C55.6645 4.27665 55.9214 3.99124 56.1669 3.69331C56.4825 4.03558 56.7658 4.40631 57.0131 4.80075H57.0133ZM70.7759 17.9938C70.7433 18.0116 70.7099 18.0268 70.6771 18.0453C70.3388 18.2418 70.0244 18.4767 69.7402 18.7454C65.9013 15.1877 61.3027 12.5509 56.293 11.0351C56.4046 10.6256 56.4647 10.2039 56.4721 9.77958C61.8154 11.3645 66.7139 14.1775 70.7759 17.9938ZM63.6618 12.269C64.942 11.0579 66.0896 9.71393 67.0852 8.25984C66.3105 9.84088 65.7061 11.4998 65.2822 13.2086C64.7513 12.8805 64.2112 12.567 63.6618 12.268V12.269ZM74.9234 15.2978C75.3057 15.3116 75.6863 15.3545 76.0621 15.4261C75.9326 15.7911 75.8223 16.1609 75.7261 16.5329C75.4473 16.484 75.1655 16.4538 74.8827 16.4424C73.5058 16.3898 72.1501 16.7932 71.0259 17.59C70.7876 17.3674 70.546 17.1483 70.3013 16.9326C70.313 16.845 70.3237 16.7575 70.3367 16.6701C71.6711 15.7165 73.2845 15.2334 74.9234 15.2968V15.2978ZM70.4436 16.0358C70.5307 15.5583 70.6362 15.0839 70.7599 14.6127C72.055 13.9215 73.5154 13.6001 74.9811 13.6838C75.5648 13.7053 76.1452 13.7828 76.7141 13.9152C76.5362 14.2653 76.3738 14.6206 76.2301 14.9825C75.8049 14.8968 75.3735 14.8457 74.94 14.8298C73.3538 14.7669 71.7858 15.1871 70.4436 16.0348V16.0358ZM80.7031 30.1376C81.3033 30.5641 81.9393 30.9379 82.6039 31.2548C82.6231 31.9 82.5054 32.5421 82.2586 33.1386C81.9306 33.9795 81.3253 34.6831 80.5428 35.1331C79.5787 35.6765 78.4532 35.8606 77.3662 35.6525C76.5277 35.4623 75.7617 35.0348 75.1596 34.4211L75.0347 34.2946L74.8621 34.3373C74.2403 34.5044 73.6447 34.7572 73.0926 35.0884C73.0123 35.1346 72.9311 35.1839 72.8457 35.2357C71.4546 36.0929 70.7089 36.8564 70.3662 37.2699L68.9364 36.5629C69.2724 36.095 70.1523 35.0589 72.0104 33.9144C73.9326 32.7304 75.2211 32.6421 75.7634 32.6759C75.9693 33.0394 76.2486 33.3562 76.5834 33.6061C76.9183 33.8561 77.3014 34.0336 77.7085 34.1276C78.2945 34.2591 80.121 34.251 80.8098 32.5515C80.979 32.1679 81.0574 31.7505 81.0389 31.3316C81.0204 30.9128 80.9055 30.5038 80.7031 30.1367V30.1376ZM85.5788 33.5542C84.7845 35.0389 83.519 36.2174 81.9815 36.904C81.9254 36.8815 81.8704 36.856 81.8147 36.8327C81.7443 36.487 81.6692 36.1431 81.5894 35.8009C82.8547 35.2208 83.8938 34.24 84.546 33.0103C84.7019 32.7189 84.835 32.4158 84.9441 32.1039C85.3224 32.2007 85.7065 32.279 86.0948 32.341C85.9575 32.759 85.7848 33.1645 85.5788 33.5532V33.5542ZM86.5741 32.4069C86.9667 32.4544 87.3628 32.4837 87.7624 32.4946C87.1781 34.5843 85.8689 36.3977 84.0693 37.61C83.5686 37.4725 83.0756 37.315 82.5903 37.1376C84.041 36.3887 85.2303 35.217 86.0008 33.7776C86.2331 33.3387 86.425 32.8796 86.5741 32.4059V32.4069ZM80.8181 44.0303C80.8185 41.3603 80.5081 38.6994 79.8933 36.1012C80.2282 35.9928 80.5507 35.8495 80.8557 35.6738C80.9233 35.6343 80.9867 35.5916 81.0516 35.5499C82.3817 40.9894 82.4132 46.6656 81.1435 52.1196C81.113 52.101 81.0842 52.0801 81.0534 52.0627C80.714 51.8677 80.3531 51.7127 79.9779 51.601C80.537 49.1162 80.8188 46.5772 80.8181 44.0303ZM79.5214 51.4851C79.0549 51.3882 78.5777 51.3537 78.1022 51.3826C79.2468 46.4378 79.2208 41.294 78.0261 36.3611C78.5018 36.3783 78.9777 36.3328 79.4415 36.2259C80.6237 41.2404 80.6508 46.458 79.5206 51.4845L79.5214 51.4851ZM84.1254 32.7866C83.5375 33.8939 82.6101 34.7836 81.4793 35.325C81.4736 35.3021 81.4688 35.2789 81.4631 35.2562C82.0756 34.7566 82.5495 34.1081 82.8395 33.3728C83.0792 32.7881 83.2113 32.1649 83.2295 31.5332C83.6397 31.7022 84.0584 31.8496 84.484 31.975C84.3848 32.254 84.2649 32.5253 84.1254 32.7866ZM79.362 31.962C79.0436 32.7472 78.0575 32.6027 78.0483 32.6006C77.4751 32.4721 77.1855 32.0438 76.9979 31.685C76.9496 31.5719 76.8772 31.4707 76.7859 31.3883C76.6946 31.3059 76.5865 31.2443 76.469 31.2077C75.9569 31.0717 74.1128 30.7826 71.1917 32.5822C68.8818 34.0053 67.8777 35.3042 67.5216 35.8614L66.1147 35.1657C66.7132 34.2359 67.4587 33.4095 68.3221 32.7188L68.514 32.5579L68.3989 32.3353L68.291 32.1264C68.3551 32.0835 68.4331 32.0307 68.5235 31.9683C69.76 31.3921 72.9457 30.0356 75.7466 29.923C78.3044 29.8186 79.0869 30.5258 79.303 30.8344C79.4079 31.0018 79.4685 31.1932 79.4788 31.3905C79.4892 31.5878 79.449 31.7845 79.362 31.962ZM68.9168 23.6013C68.686 22.7735 68.6983 21.8967 68.9524 21.0757C69.3158 20.0307 70.0379 19.1483 70.9903 18.5853C71.771 18.1329 72.6829 17.9606 73.5748 18.0969C74.2072 18.181 74.8149 18.3964 75.359 18.7294C75.3037 19.4542 75.3104 20.1823 75.3788 20.906C75.1574 20.5659 74.8634 20.2791 74.5179 20.0663C74.1724 19.8534 73.784 19.7198 73.3807 19.675C71.5639 19.4216 70.6435 21.002 70.4646 21.575C70.3426 21.9744 70.3049 22.3948 70.3539 22.8095C70.4029 23.2242 70.5376 23.6242 70.7494 23.9842C70.5085 24.4716 69.7884 25.5417 67.8014 26.6147C65.8593 27.6623 64.5121 27.9016 63.9472 27.9554L64.0518 26.3321C64.575 26.2445 65.6016 25.9836 67.0379 25.2082C67.1301 25.1579 67.2188 25.1083 67.3038 25.0596C67.8678 24.7466 68.3852 24.3563 68.8411 23.9L68.9638 23.7719L68.9168 23.6013ZM68.6144 20.2561C64.8859 16.758 60.3866 14.1862 55.4803 12.7487C55.7606 12.3583 55.9867 11.9316 56.1523 11.4804C61.0919 12.9747 65.6265 15.5738 69.4125 19.0808C69.0957 19.4358 68.8273 19.8312 68.6144 20.2567V20.2561ZM72.0367 17.5269C72.9127 17.085 73.8865 16.8729 74.8669 16.9104C75.1187 16.9207 75.3695 16.9471 75.618 16.9895C75.5417 17.3407 75.4766 17.6935 75.4304 18.0487C74.879 17.7543 74.2796 17.5607 73.6602 17.4769C73.1202 17.3997 72.5709 17.4168 72.0367 17.5275V17.5269ZM68.5444 27.9909C71.5653 26.3597 72.2351 24.6182 72.3684 24.1233C72.398 24.001 72.4003 23.8737 72.3753 23.7504C72.3502 23.6271 72.2983 23.5108 72.2233 23.4098C72.0069 23.0677 71.781 22.603 71.9565 22.0428C71.9594 22.0345 72.3273 21.1081 73.1661 21.224C73.3633 21.2378 73.5537 21.3017 73.7193 21.4096C73.8849 21.5175 74.0203 21.6659 74.1126 21.8406C74.2708 22.183 74.4927 23.2125 73.1244 25.3748C71.624 27.7467 68.8533 29.8279 67.738 30.6096C67.6688 30.6424 67.6068 30.6725 67.5518 30.6992C67.4727 30.5472 67.3963 30.3983 67.3231 30.2574C67.2585 30.2772 67.1933 30.2932 67.1279 30.3082L67.1211 30.3209L66.9695 30.3762C65.9391 30.7776 64.8506 31.01 63.746 31.0646L63.8449 29.5322C64.4894 29.5063 66.1265 29.296 68.5444 27.9909ZM75.6836 28.3625C74.4999 28.4276 73.3271 28.624 72.1867 28.948C73.0386 28.1218 73.7962 27.2037 74.4455 26.2103C75.2776 24.8951 75.6464 23.8411 75.7561 23.0068C76.3482 25.2263 77.5271 27.2455 79.1689 28.8521C78.3886 28.5167 77.2772 28.2973 75.6836 28.3625ZM55.6455 5.65678C56.3283 6.74231 56.6319 8.02359 56.5089 9.30008C56.4915 9.29494 56.4743 9.28921 56.4569 9.28407C56.3773 8.38413 56.0335 7.52779 55.4686 6.82272C55.1091 6.35966 54.6749 5.95979 54.1839 5.63958C54.4879 5.40062 54.7798 5.14545 55.062 4.87902C55.2773 5.12203 55.4724 5.38214 55.6455 5.65678ZM54.9757 7.20794C55.5411 7.91118 55.8493 8.78649 55.8493 9.68886C55.84 10.7952 55.4387 11.8625 54.7169 12.7011C54.134 13.3325 53.3818 13.7829 52.5499 13.9984L52.3783 14.0437L52.3291 14.2141C52.1628 14.8373 52.0846 15.4807 52.0967 16.1256C52.0967 16.2244 52.0989 16.3248 52.1014 16.4301C52.151 18.0618 52.4402 19.0806 52.6268 19.5771L51.2749 20.4818C51.0377 19.9655 50.5684 18.6802 50.5014 16.4742C50.4331 14.217 50.9979 13.0574 51.2988 12.6044C51.7164 12.6072 52.13 12.5232 52.5134 12.3577C52.8968 12.1921 53.2416 11.9487 53.5259 11.6428C53.9319 11.2007 54.8375 9.61178 53.7071 8.16695C53.2684 7.57861 52.6154 7.18689 51.8897 7.0767C52.5 6.77885 53.0856 6.43286 53.6409 6.042C54.1573 6.34032 54.6107 6.73634 54.9757 7.20794ZM52.476 9.12951C52.9968 9.79697 52.3799 10.5801 52.3742 10.5868C51.9777 11.0194 51.4624 11.057 51.0578 11.0414C50.9328 11.0272 50.8062 11.0406 50.6869 11.0807C50.5676 11.1209 50.4586 11.1867 50.3676 11.2736C50.0063 11.6371 48.8356 13.09 48.9396 16.5217C49.0228 19.269 49.662 20.7897 49.9626 21.36L48.6864 22.214C48.1797 21.231 47.835 20.1727 47.6655 19.0799L47.6373 18.9217L47.6448 18.9095C47.625 18.8454 47.6064 18.7808 47.5908 18.7152L47.0939 18.7389C47.0896 18.6778 47.0843 18.6091 47.0781 18.533C47.1949 17.1759 47.6068 13.7346 48.9054 11.2475C50.0913 8.97989 51.092 8.65514 51.4678 8.62056C51.6652 8.61279 51.8614 8.65543 52.0378 8.74448C52.2142 8.83353 52.365 8.96603 52.476 9.12951ZM47.5205 10.5226C46.9868 11.5824 46.5723 12.6983 46.2848 13.8496C45.9932 12.7005 45.5749 11.5874 45.0376 10.5307C44.3948 9.30957 43.7485 8.50592 43.1445 7.98293C45.1908 8.5006 47.3336 8.50318 49.3812 7.99044C48.7854 8.51659 48.1506 9.31688 47.5205 10.5226ZM43.6552 11.2592C44.9625 13.7389 45.3866 17.1755 45.5082 18.5341C45.4997 18.6434 45.4932 18.7373 45.4884 18.8144L45.2536 18.8257L45.0034 18.8377L44.9605 19.0846C44.7966 20.178 44.4561 21.2376 43.9525 22.2219L42.645 21.3538C42.9484 20.766 43.5684 19.2461 43.6414 16.5339C43.7329 13.1035 42.5578 11.6529 42.1833 11.2782C42.0928 11.1949 41.9853 11.1322 41.8682 11.0945C41.7511 11.0568 41.6273 11.0449 41.5052 11.0598C41.1008 11.0776 40.5853 11.0424 40.1862 10.6103C40.1795 10.6028 39.5603 9.82267 40.0799 9.15362C40.1898 8.9896 40.3397 8.85632 40.5155 8.7664C40.6912 8.67648 40.887 8.63288 41.0844 8.63973C41.4589 8.67313 42.4628 8.99491 43.6552 11.26V11.2592ZM38.844 8.1956C37.7192 9.64379 38.6282 11.228 39.0357 11.6691C39.3212 11.9742 39.667 12.2167 40.0511 12.381C40.4352 12.5454 40.8494 12.6281 41.2672 12.624C41.5686 13.0762 42.1382 14.2352 42.0776 16.4918C42.0183 18.6735 41.5637 19.9547 41.3277 20.4798L39.9991 19.5975C40.1852 19.0931 40.4714 18.0653 40.5153 16.4321C40.5173 16.3333 40.5191 16.2372 40.5189 16.1445C40.5287 15.5008 40.4489 14.8589 40.2817 14.2372L40.2321 14.0666L40.0601 14.022C39.2272 13.8087 38.4733 13.3604 37.8881 12.7305C37.1631 11.8944 36.7578 10.8283 36.7443 9.72167C36.7412 8.81911 37.0464 7.94253 37.6093 7.237C37.9735 6.76254 38.4269 6.36373 38.944 6.06295C39.5004 6.45176 40.0869 6.79577 40.6978 7.09172C40.3306 7.1428 39.9774 7.26688 39.6589 7.45664C39.3405 7.64639 39.0633 7.89799 38.8436 8.19659L38.844 8.1956ZM20.0474 24.1223C20.1808 24.6165 20.8506 26.3587 23.8715 27.99C26.2894 29.2945 27.9263 29.5054 28.5705 29.5316L28.6693 31.064C27.5648 31.0094 26.4763 30.777 25.4458 30.3756L25.294 30.3203L25.2875 30.3076C25.2219 30.2926 25.1567 30.2762 25.092 30.2568C25.0191 30.3977 24.9422 30.5466 24.8633 30.6986C24.8086 30.6719 24.7465 30.6418 24.6774 30.609C23.5618 29.8273 20.7911 27.7453 19.291 25.3742C17.9232 23.2119 18.1446 22.1824 18.3027 21.84C18.3951 21.6653 18.5305 21.5169 18.6962 21.409C18.8618 21.3011 19.0522 21.2372 19.2495 21.2234C20.0881 21.1076 20.4551 22.0337 20.4591 22.0422C20.6346 22.6024 20.4087 23.0671 20.1923 23.4092C20.1172 23.5103 20.0652 23.6267 20.0401 23.7501C20.015 23.8735 20.0174 24.0009 20.047 24.1233L20.0474 24.1223ZM24.6131 26.6149C22.6259 25.5419 21.9053 24.4718 21.6649 23.9844C21.8768 23.6245 22.0115 23.2245 22.0606 22.8097C22.1096 22.395 22.072 21.9746 21.95 21.5752C21.7709 21.002 20.8506 19.4218 19.0338 19.6752C18.6562 19.7187 18.2916 19.8396 17.9628 20.0303C17.6339 20.2209 17.3479 20.4773 17.1225 20.7834C17.1759 20.0886 17.1725 19.3906 17.1123 18.6964C17.6421 18.3823 18.2298 18.1784 18.8403 18.0967C19.7323 17.9604 20.6441 18.1327 21.4248 18.5851C22.3772 19.1482 23.0992 20.0306 23.4628 21.0755C23.7168 21.8965 23.7292 22.7733 23.4984 23.6011L23.4515 23.7723L23.5741 23.9004C24.03 24.3566 24.5474 24.7469 25.1114 25.06C25.1961 25.1089 25.2847 25.1584 25.3772 25.2086C26.8138 25.984 27.8402 26.2449 28.3633 26.3325L28.4681 27.9558C27.9036 27.9028 26.5564 27.664 24.6143 26.6159L24.6131 26.6149ZM23.1347 19.2328C26.9243 15.677 31.4783 13.0369 36.4471 11.515C36.6141 11.9658 36.8416 12.3919 37.1234 12.7815C32.1674 14.2531 27.6325 16.8823 23.8931 20.4521C23.6971 20.0136 23.4423 19.6037 23.1359 19.2338L23.1347 19.2328ZM37.1136 6.85316C36.7879 7.26932 36.5341 7.73694 36.3625 8.23672C36.4419 7.31979 36.7386 6.43496 37.2278 5.65539C37.3628 5.4423 37.5113 5.23804 37.6723 5.04386C37.9083 5.25831 38.1494 5.46664 38.4003 5.66231C37.9082 5.98507 37.4737 6.38792 37.1147 6.85415L37.1136 6.85316ZM21.391 17.8621C20.5699 17.4758 19.6525 17.3422 18.7553 17.4781C18.1555 17.5589 17.5741 17.7426 17.0368 18.021C16.9814 17.6273 16.9053 17.2362 16.8132 16.8478C17.1315 16.783 17.4545 16.7442 17.7791 16.732C19.0753 16.6818 20.3507 17.0682 21.4011 17.8293L21.6754 17.4488C20.5411 16.6253 19.1626 16.2076 17.7619 16.2629C17.4031 16.2765 17.0461 16.3202 16.6946 16.3936C16.5925 16.0246 16.4735 15.6594 16.3377 15.298C16.7923 15.1953 17.2555 15.1348 17.7212 15.1173C19.3683 15.0598 20.9882 15.5479 22.3295 16.5056C22.3508 16.6535 22.37 16.8015 22.3872 16.9496C22.0502 17.2486 21.7167 17.5512 21.391 17.8621ZM16.6952 23.2242C16.8373 24.0225 17.2091 25.0064 17.9707 26.2103C18.6201 27.2036 19.3777 28.1218 20.2296 28.948C19.0892 28.6239 17.9163 28.4276 16.7326 28.3625C15.3152 28.3046 14.2801 28.4722 13.5188 28.7458C15.0268 27.203 16.1196 25.3034 16.6952 23.2242ZM16.6695 29.9246C19.4704 30.0372 22.6564 31.3937 23.8929 31.9699C23.9832 32.0321 24.0611 32.0849 24.1253 32.128L24.0172 32.3369L23.9024 32.5595L24.0943 32.7203C24.958 33.4108 25.7038 34.237 26.3024 35.1667L24.8958 35.8624C24.54 35.3052 23.5353 34.0065 21.2256 32.5832C18.3035 30.7836 16.4592 31.0727 15.9473 31.2087C15.8298 31.2452 15.7217 31.3068 15.6303 31.3892C15.539 31.4717 15.4666 31.5729 15.4182 31.686C15.2308 32.0448 14.9419 32.4731 14.3679 32.6016C14.358 32.6037 13.3725 32.7482 13.0543 31.9629C12.9676 31.7856 12.9275 31.5891 12.9379 31.392C12.9482 31.1948 13.0087 31.0036 13.1136 30.8363C13.33 30.5266 14.1119 29.8194 16.6695 29.9238V29.9246ZM10.449 34.7771C9.66062 34.2435 9.01573 33.5239 8.57136 32.682C8.45446 32.4582 8.35213 32.2272 8.265 31.9902C8.57867 31.8898 8.88918 31.7805 9.19396 31.6566C9.22545 32.2461 9.35574 32.8262 9.57938 33.3726C9.78456 33.8882 10.0789 34.3636 10.449 34.7771ZM11.6241 35.7082C11.9949 35.9146 12.3899 36.0739 12.8001 36.1826C11.5492 41.5283 11.5948 47.0957 12.9331 52.4202C12.5929 52.5294 12.2653 52.6744 11.9557 52.8527C11.8947 52.8881 11.8371 52.9274 11.7779 52.9649C10.3132 47.312 10.2602 41.3858 11.6235 35.7076L11.6241 35.7082ZM12.3635 44.0293C12.3627 41.4213 12.6624 38.8219 13.2567 36.2824C13.7304 36.3659 14.2132 36.3847 14.692 36.3385C13.426 41.5437 13.4648 46.981 14.8049 52.1676C14.3283 52.1485 13.8512 52.1925 13.3861 52.2983C12.7067 49.5948 12.3632 46.8179 12.3635 44.0303V44.0293ZM72.566 63.6122C72.4328 63.1181 71.763 61.3758 68.7421 59.7446C66.3242 58.4401 64.6871 58.2292 64.0431 58.2029L63.9443 56.6705C65.0488 56.7251 66.1373 56.9576 67.1678 57.3589L67.3194 57.4143L67.3261 57.4269C67.3915 57.4419 67.4567 57.4583 67.5214 57.4777C67.5945 57.3368 67.6714 57.188 67.7501 57.036C67.805 57.0627 67.8671 57.0927 67.9362 57.1255C69.0516 57.9072 71.8223 59.9893 73.3226 62.3603C74.6904 64.5226 74.469 65.5522 74.3109 65.8945C74.2185 66.0693 74.0831 66.2176 73.9175 66.3255C73.7519 66.4334 73.5615 66.4973 73.3643 66.5112C72.5255 66.627 72.1577 65.7008 72.1547 65.6923C71.9792 65.1321 72.2051 64.6677 72.4215 64.3253C72.4963 64.2244 72.5479 64.1084 72.5729 63.9853C72.5979 63.8623 72.5955 63.7352 72.566 63.6132V63.6122ZM37.4071 75.3606C37.1456 75.7604 36.9385 76.1932 36.791 76.6475C31.8848 75.202 27.3682 72.6678 23.5778 69.2336C23.8799 68.8601 24.1293 68.447 24.3192 68.0058C28.0497 71.4432 32.5313 73.962 37.4071 75.3616V75.3606ZM25.259 57.827C25.3381 57.979 25.4148 58.1278 25.4877 58.2687C25.5523 58.249 25.6176 58.2329 25.6832 58.2179L25.6897 58.2053L25.8415 58.1499C26.872 57.7486 27.9605 57.5161 29.065 57.4615L28.9662 58.9939C28.322 59.0198 26.6851 59.2311 24.2672 60.5356C21.2463 62.1668 20.5765 63.9083 20.4431 64.4032C20.4135 64.5255 20.4112 64.6528 20.4363 64.7761C20.4614 64.8994 20.5133 65.0157 20.5883 65.1167C20.8048 65.4591 21.0307 65.9235 20.8552 66.4837C20.8522 66.492 20.4842 67.4184 19.6455 67.3026C19.4483 67.2887 19.2579 67.2248 19.0923 67.1169C18.9266 67.009 18.7912 66.8607 18.6988 66.6859C18.5407 66.3436 18.3189 65.314 19.6871 63.1517C21.1872 60.7799 23.9579 58.6986 25.0734 57.9169C25.1422 57.8847 25.2043 57.8546 25.259 57.828V57.827ZM37.4116 82.4561C36.7357 81.3846 36.431 80.1205 36.5447 78.8588L36.5801 78.8693C36.6926 79.6893 37.0245 80.4637 37.5407 81.1107C37.9147 81.5932 38.3699 82.007 38.8859 82.3333C38.5527 82.5905 38.2322 82.8645 37.9245 83.1554C37.7368 82.9354 37.5654 82.702 37.4116 82.4571V82.4561ZM38.0334 80.7252C37.4681 80.0219 37.1598 79.1467 37.1598 78.2443C37.1692 77.138 37.5704 76.0707 38.2921 75.2321C38.8752 74.6007 39.6275 74.1504 40.4594 73.9347L40.6309 73.8895L40.6802 73.7191C40.8464 73.0959 40.9246 72.4525 40.9124 71.8076C40.9124 71.7088 40.9104 71.6084 40.9079 71.503C40.8582 69.8714 40.5689 68.8525 40.3825 68.356L41.7342 67.4514C41.9714 67.9677 42.4406 69.253 42.5076 71.459C42.576 73.7161 42.0113 74.8758 41.7105 75.3288C41.2929 75.326 40.8793 75.41 40.4959 75.5755C40.1125 75.7411 39.7677 75.9845 39.4834 76.2903C39.0774 76.7325 38.1716 78.3214 39.3021 79.7662C39.5345 80.0801 39.8309 80.341 40.1716 80.5318C40.5123 80.7226 40.8896 80.8389 41.2786 80.8731C40.6363 81.1737 40.0201 81.5272 39.4363 81.9299C38.8917 81.6282 38.4142 81.2187 38.0332 80.7262L38.0334 80.7252ZM40.5331 78.8037C40.0123 78.1362 40.6294 77.3531 40.6351 77.3464C41.0316 76.9137 41.5467 76.8762 41.9515 76.8918C42.0765 76.906 42.2031 76.8926 42.3223 76.8525C42.4415 76.8123 42.5505 76.7465 42.6415 76.6596C43.0028 76.2961 44.1736 74.8431 44.0697 71.4115C43.9863 68.6652 43.3471 67.1434 43.0464 66.5732L44.3227 65.7192C44.8295 66.7021 45.1742 67.7605 45.3437 68.8533L45.372 69.0114L45.3643 69.0237C45.3841 69.0877 45.4028 69.1524 45.4185 69.218L45.9153 69.1943C45.9197 69.2553 45.9248 69.3239 45.9312 69.4002C45.8143 70.7573 45.4024 74.1986 44.1037 76.6856C42.919 78.9533 41.9173 79.278 41.5415 79.3126C41.3441 79.3205 41.148 79.278 40.9716 79.1891C40.7952 79.1003 40.6443 78.968 40.5331 78.8047V78.8037ZM45.4888 77.4098C46.0224 76.3499 46.4368 75.2341 46.7245 74.0828C47.0161 75.2318 47.4343 76.345 47.9715 77.4017C48.6878 78.7622 49.4084 79.6053 50.07 80.1182C47.9062 79.5282 45.6252 79.5174 43.456 80.087C44.1011 79.5692 44.7976 78.7339 45.4888 77.4108V77.4098ZM49.3541 76.6732C48.0468 74.1935 47.6227 70.7569 47.5009 69.3982C47.5094 69.2889 47.5159 69.1951 47.5207 69.118L47.7557 69.1067L48.0057 69.0947L48.0488 68.8478C48.2129 67.7543 48.5537 66.6947 49.0578 65.7105L50.3651 66.5786C50.0617 67.1664 49.4416 68.6863 49.3687 71.3985C49.2772 74.8289 50.4524 76.2795 50.8268 76.6542C50.9172 76.7378 51.0248 76.8007 51.1419 76.8386C51.2591 76.8766 51.383 76.8886 51.5053 76.874C51.9097 76.8562 52.4252 76.8914 52.8242 77.3235C52.831 77.331 53.4502 78.1111 52.9304 78.7802C52.8205 78.9442 52.6707 79.0775 52.4949 79.1674C52.3192 79.2573 52.1234 79.3009 51.9261 79.2941C51.5504 79.261 50.5465 78.9393 49.3541 76.6742V76.6732ZM54.1653 79.7368C55.2899 78.2886 54.3811 76.7044 53.9734 76.2633C53.6879 75.9582 53.3421 75.7157 52.958 75.5513C52.5738 75.387 52.1597 75.3042 51.7419 75.3084C51.4407 74.8562 50.8711 73.697 50.9315 71.4406C50.9908 69.2589 51.4454 67.9779 51.6826 67.4526L53.0112 68.3349C52.8248 68.8393 52.5388 69.8671 52.4949 71.5003C52.493 71.6001 52.491 71.6952 52.4914 71.7878C52.4816 72.4316 52.5614 73.0735 52.7286 73.6952L52.7784 73.8658L52.9501 73.9104C53.7831 74.1236 54.5371 74.572 55.1223 75.2019C55.8474 76.038 56.2527 77.1041 56.2661 78.2107C56.2693 79.1133 55.9641 79.9899 55.401 80.6954C55.0134 81.2014 54.5244 81.6209 53.9653 81.927C53.3725 81.5184 52.7464 81.1606 52.0935 80.8573C52.5004 80.8364 52.8974 80.725 53.2558 80.5313C53.6142 80.3377 53.9249 80.0665 54.1653 79.7376V79.7368ZM56.5729 76.4502C56.4093 75.9997 56.1856 75.5732 55.908 75.1825C60.7584 73.6879 65.1929 71.0817 68.8587 67.5714C69.0795 67.9912 69.3546 68.3802 69.6768 68.7284C65.9476 72.2584 61.4677 74.8983 56.5729 76.4502ZM69.1508 66.6602C68.8968 65.8392 68.8844 64.9624 69.1152 64.1346L69.1621 63.9634L69.0393 63.8354C68.5835 63.379 68.066 62.9887 67.502 62.6757C67.4174 62.6269 67.3288 62.5773 67.2362 62.5271C65.7998 61.7517 64.7732 61.4908 64.25 61.4033L64.1455 59.78C64.7112 59.8337 66.0584 60.0725 67.9997 61.1206C69.9867 62.1937 70.7075 63.2638 70.9477 63.7512C70.7359 64.1111 70.6012 64.5111 70.5522 64.9258C70.5031 65.3405 70.5408 65.7609 70.6628 66.1603C70.8407 66.7335 71.7622 68.3137 73.579 68.0603C74.0068 68.0135 74.4173 67.8657 74.7769 67.6294C75.1365 67.393 75.4349 67.0746 75.6476 66.7005C75.5702 67.4539 75.56 68.2127 75.6172 68.968C75.0582 69.3227 74.4287 69.5514 73.7725 69.6382C72.8805 69.7746 71.9687 69.6023 71.188 69.1498C70.2357 68.587 69.5136 67.7049 69.15 66.6602H69.1508ZM75.6899 69.6528C75.747 70.0904 75.8267 70.5247 75.9286 70.954C75.611 71.0189 75.2885 71.0575 74.9645 71.0692C73.7188 71.1179 72.4908 70.7618 71.4645 70.0541C71.4831 70.0361 71.5027 70.0187 71.5214 70.0005C72.2654 70.2872 73.0709 70.376 73.8594 70.2584C74.5015 70.1715 75.1219 69.9662 75.6891 69.6528H75.6899ZM74.7457 71.542C74.8248 71.542 74.9026 71.5408 74.9813 71.5378C75.3401 71.5248 75.6972 71.4813 76.0486 71.4076C76.1507 71.7765 76.2701 72.1418 76.4066 72.5033C75.3913 72.7337 74.339 72.7489 73.3175 72.5481C72.296 72.3473 71.3278 71.9348 70.4753 71.3372C70.4594 71.2279 70.4456 71.1182 70.4322 71.0087C70.6618 70.8036 70.8889 70.5954 71.1133 70.3843C72.1734 71.1396 73.4433 71.5444 74.7449 71.542H74.7457ZM75.97 64.8711C75.8852 64.0154 75.5239 62.9171 74.6439 61.5262C73.9946 60.533 73.2369 59.6149 72.385 58.7889C73.5253 59.1129 74.6981 59.3093 75.8818 59.3744C77.5105 59.441 78.6355 59.2103 79.4178 58.8625C77.7374 60.5098 76.5442 62.589 75.9698 64.8711H75.97ZM75.9451 57.8127C73.1441 57.7001 69.9584 56.3436 68.7219 55.7674C68.6316 55.7052 68.5535 55.6524 68.4895 55.6093L68.5974 55.4004L68.7124 55.1779L68.5205 55.017C67.6568 54.3264 66.911 53.5002 66.3121 52.5706L67.719 51.8749C68.0748 52.4321 69.0793 53.7308 71.3892 55.1541C74.3113 56.9537 76.1554 56.6646 76.6665 56.5286C76.7839 56.4921 76.8921 56.4304 76.9834 56.348C77.0747 56.2656 77.147 56.1644 77.1954 56.0513C77.383 55.6925 77.6719 55.2642 78.2457 55.1357C78.2558 55.1336 79.2411 54.9891 79.5595 55.7744C79.6462 55.9517 79.6863 56.1482 79.6759 56.3454C79.6655 56.5425 79.6051 56.7337 79.5002 56.901C79.283 57.2099 78.5021 57.9171 75.9443 57.8127H75.9451ZM82.1217 52.9173C83.2084 53.5916 84.0384 54.6099 84.4796 55.8103C84.1239 55.9246 83.771 56.0517 83.4269 56.1963C83.4078 55.567 83.2757 54.9463 83.037 54.3637C82.8229 53.8295 82.5124 53.3392 82.1209 52.9173H82.1217ZM81.6242 52.1151C81.6878 51.8383 81.7499 51.5591 81.8072 51.279C81.9351 51.2246 82.0624 51.1685 82.1918 51.1171C83.0907 51.5387 83.8959 52.1363 84.5598 52.8744C85.2237 53.6126 85.7328 54.4765 86.0571 55.4148C85.6765 55.4851 85.301 55.5722 84.9305 55.6761C84.8335 55.4105 84.7189 55.1516 84.5875 54.9011C83.937 53.6685 82.8939 52.688 81.6234 52.1151H81.6242ZM86.014 54.1441C85.2869 52.7637 84.1654 51.6311 82.7923 50.8904C83.2448 50.7283 83.704 50.5834 84.1701 50.4556C85.3882 51.229 86.3749 52.3169 87.0262 53.6044C87.298 54.1199 87.5201 54.6602 87.6897 55.2178C87.2979 55.2387 86.9097 55.2776 86.5249 55.3344C86.3871 54.9245 86.2162 54.5264 86.014 54.1441ZM88.8187 52.6548C88.284 51.6472 87.5974 50.728 86.7829 49.9294C87.2829 49.8644 87.7869 49.8166 88.2951 49.7911C88.6431 50.1931 88.965 50.617 89.2588 51.0602C89.1604 51.6663 89.0495 52.2697 88.926 52.8703C88.8906 52.7981 88.8564 52.7258 88.8187 52.6546V52.6548ZM88.5036 49.3145C88.4957 49.3058 88.4884 49.2969 88.4807 49.2882L88.4496 49.3163C86.315 49.4051 84.2092 49.8411 82.2148 50.6072L82.2096 50.6048L82.2072 50.6099C82.1084 50.6483 82.0096 50.6902 81.9121 50.7307C81.9837 50.3516 82.0496 49.9705 82.1098 49.5875C84.5116 48.6875 87.0589 48.2386 89.6237 48.2632C89.5902 48.6098 89.5526 48.9553 89.5108 49.2999C89.1738 49.2961 88.838 49.3008 88.5036 49.3141V49.3145ZM82.1885 49.0606C82.228 48.7838 82.2655 48.5046 82.2982 48.2249C84.686 47.3965 87.1987 46.9853 89.7261 47.0093C89.7082 47.2714 89.6877 47.533 89.6646 47.794C87.1169 47.7666 84.5849 48.1955 82.1885 49.0606ZM82.4531 46.5306C82.4756 46.2049 82.4937 45.878 82.5073 45.5499C84.8797 44.8371 87.3467 44.4896 89.8237 44.5195C89.8202 44.8288 89.8136 45.1376 89.8039 45.4459C87.3114 45.4166 84.8299 45.7828 82.4521 46.531L82.4531 46.5306ZM82.5294 43.1557C84.3104 43.6722 86.1437 43.9877 87.9949 44.0965C86.1424 44.2116 84.3087 44.5336 82.5278 45.0565C82.5376 44.7154 82.5426 44.3732 82.543 44.0299C82.5421 43.7378 82.5355 43.4469 82.5284 43.1561L82.5294 43.1557ZM89.8261 43.6655C87.3523 43.7039 84.8869 43.3662 82.5146 42.664C82.5037 42.3768 82.4921 42.0896 82.4751 41.8042C84.7583 42.5224 87.1376 42.8885 89.5312 42.8901C89.6261 42.8901 89.7213 42.8875 89.8166 42.8863C89.8214 43.146 89.8231 43.4059 89.8251 43.6659L89.8261 43.6655ZM82.3268 40.1145C82.2873 39.7514 82.2423 39.3899 82.192 39.0298C84.4707 39.8395 86.871 40.254 89.2893 40.2552C89.4152 40.2552 89.5421 40.2526 89.6686 40.2505C89.6989 40.6079 89.7248 40.9665 89.7464 41.3261C87.222 41.351 84.7122 40.9412 82.3268 40.1145ZM86.6917 38.1368C87.5619 37.3077 88.2933 36.3443 88.8582 35.2835C88.8835 35.2358 88.906 35.1888 88.9303 35.1414C89.0547 35.745 89.1661 36.3521 89.2644 36.9627C88.955 37.4206 88.6163 37.8579 88.2504 38.272C87.7262 38.2475 87.2064 38.2024 86.6908 38.1368H86.6917ZM88.436 35.0613C87.8351 36.1888 87.0379 37.2001 86.082 38.0478C85.6076 37.9709 85.138 37.8764 84.6731 37.7644C86.4308 36.4681 87.6946 34.6118 88.2563 32.5013H88.2996C88.4688 33.1232 88.6248 33.7491 88.7675 34.379C88.6683 34.601 88.5578 34.8299 88.4342 35.0613H88.436ZM76.9406 13.4873C76.3041 13.3299 75.6531 13.2383 74.9979 13.214C73.5971 13.1397 72.1996 13.4126 70.9297 14.0083C71.0684 13.5435 71.2252 13.0827 71.4001 12.6262C72.5738 12.2479 73.8046 12.0779 75.0368 12.1237C75.3567 12.134 75.6802 12.1601 75.9988 12.201L76.0002 12.1905C76.3661 12.5325 76.7289 12.8787 77.0849 13.2347C77.0367 13.3189 76.9879 13.4027 76.9406 13.4873ZM75.0527 11.6549C73.8957 11.612 72.7392 11.7509 71.6254 12.0666C71.8219 11.5992 72.0378 11.138 72.2731 10.683C72.8571 10.5685 73.4486 10.4958 74.0431 10.4656C74.5174 10.859 74.9845 11.2629 75.4444 11.6774C75.3136 11.6689 75.1825 11.6592 75.0533 11.6549H75.0527ZM72.5577 10.1537C72.6701 9.95213 72.7863 9.75198 72.9064 9.55327C73.1098 9.71139 73.3112 9.87169 73.512 10.0332C73.192 10.062 72.8732 10.1016 72.5577 10.1537ZM69.877 16.5661C69.5881 16.3184 69.2956 16.0753 68.9994 15.8368C69.4452 13.295 70.3605 10.8586 71.6985 8.65198C71.977 8.8528 72.2533 9.05704 72.5277 9.2647C71.1655 11.4972 70.2643 13.9798 69.877 16.5661ZM68.579 15.5002C68.3567 15.3264 68.132 15.1551 67.905 14.9863C68.3999 12.4872 69.325 10.093 70.6389 7.9104C70.8646 8.06318 71.0902 8.21656 71.3133 8.37369C69.9792 10.5647 69.0528 12.9791 68.579 15.5002ZM66.5207 14.0091C66.2495 13.8262 65.9759 13.6471 65.6998 13.4717C66.2863 11.0405 67.2434 8.71392 68.5373 6.57368C68.8024 6.7318 69.0659 6.89302 69.3279 7.05733C68.0271 9.2099 67.0794 11.5569 66.5207 14.0091ZM63.2272 12.0326C62.973 11.8981 62.7173 11.7663 62.4601 11.6373C64.3248 9.94796 65.9071 7.97117 67.1472 5.78189C67.3759 5.90681 67.6042 6.03231 67.8305 6.16138C66.6059 8.34261 65.0534 10.3227 63.2272 12.0322V12.0326ZM60.9173 10.9151C60.582 10.7671 60.2441 10.624 59.9035 10.4858C61.8662 8.82545 63.5049 6.8164 64.7369 4.56001C65.0806 4.7209 65.4225 4.88607 65.7625 5.05552C64.4992 7.27464 62.8597 9.25722 60.9173 10.9147V10.9151ZM59.4088 10.2868C59.1153 10.1728 58.8202 10.0623 58.5233 9.95529C58.5352 9.88018 58.5496 9.80547 58.5587 9.73017C60.5313 8.14157 62.1723 6.18056 63.3883 3.95876C63.6966 4.09053 64.0034 4.22559 64.3088 4.36394C63.066 6.63108 61.4031 8.64098 59.4088 10.2864V10.2868ZM62.6584 4.29378C62.5615 4.03545 62.454 3.77988 62.3403 3.52808C62.5453 3.60911 62.7507 3.68936 62.9544 3.77356C62.8582 3.94828 62.7594 4.12221 62.6584 4.29338V4.29378ZM62.3421 4.80866C62.0654 5.24191 61.7725 5.66014 61.4651 6.06592C61.1818 4.93517 60.7216 3.85632 60.1014 2.8693C60.06 2.8025 60.0148 2.7353 59.9711 2.66829C60.5536 2.86001 61.1309 3.06617 61.7043 3.28259C61.9511 3.77625 62.1644 4.28596 62.3427 4.80826L62.3421 4.80866ZM59.7039 3.11736C60.3641 4.16855 60.8342 5.32773 61.0926 6.54186C60.7958 6.90857 60.4867 7.26263 60.1652 7.60404C59.9004 5.4551 58.916 3.45905 57.3724 1.94074L57.3902 1.9101C58.0126 2.07271 58.6308 2.24875 59.2445 2.43823C59.4096 2.66217 59.5641 2.89026 59.7045 3.11696L59.7039 3.11736ZM35.2985 2.14887C34.8444 2.62154 34.4401 3.1396 34.0919 3.69489C33.3251 4.87692 32.8625 6.23021 32.7453 7.63428C32.4104 7.2818 32.0885 6.91582 31.7795 6.53633C32.0385 5.32439 32.5077 4.16714 33.1657 3.11696C33.3311 2.8529 33.5098 2.59417 33.6964 2.34612C34.1852 2.19848 34.6777 2.0623 35.1722 1.93106C35.2151 2.00379 35.2562 2.07692 35.2991 2.14847L35.2985 2.14887ZM32.7686 2.86851C32.15 3.85533 31.6904 4.93332 31.4068 6.06295C31.0996 5.66053 30.8057 5.24566 30.5288 4.81636C30.7191 4.2553 30.9494 3.70858 31.2178 3.18041C31.7936 2.96774 32.374 2.76725 32.9589 2.57896C32.8943 2.67462 32.8299 2.77048 32.7688 2.86812L32.7686 2.86851ZM30.2112 4.30583C30.0926 4.10818 29.977 3.90809 29.8643 3.70557C30.1027 3.60832 30.3414 3.51187 30.5816 3.41877C30.4476 3.70991 30.3231 4.0058 30.2114 4.30544L30.2112 4.30583ZM34.4883 9.8541C34.1263 9.9802 33.7668 10.112 33.41 10.2494C31.4081 8.59253 29.7338 6.57588 28.4734 4.30346C28.7897 4.16115 29.1077 4.0228 29.4275 3.88839C30.6979 6.19575 32.419 8.22433 34.4885 9.8537L34.4883 9.8541ZM32.9119 10.4423C32.6514 10.5468 32.3923 10.6541 32.1345 10.7643C30.2007 9.08349 28.5754 7.07791 27.3316 4.83791C27.5688 4.72288 27.8065 4.60989 28.0447 4.49894C29.2938 6.75841 30.943 8.77211 32.9121 10.4419L32.9119 10.4423ZM30.5855 11.4754C30.2908 11.6185 29.9984 11.7655 29.7084 11.9164C27.8841 10.1888 26.3378 8.18971 25.1242 5.98982C25.3936 5.83908 25.6643 5.69097 25.9364 5.5455C27.158 7.75864 28.7279 9.76075 30.5857 11.475L30.5855 11.4754ZM27.1031 13.4102C26.86 13.5636 26.6173 13.7178 26.3779 13.8769C25.8509 11.4049 24.93 9.03378 23.6504 6.85415C23.8728 6.7179 24.0961 6.58376 24.3204 6.45173C25.6007 8.61412 26.5393 10.9613 27.1031 13.4102ZM24.98 14.858C24.684 15.0752 24.3915 15.2968 24.1026 15.5229C23.6514 12.9801 22.7319 10.5432 21.391 8.33614C21.7034 8.11674 22.0185 7.9019 22.3364 7.6916C23.6281 9.90821 24.5227 12.3335 24.9796 14.858H24.98ZM22.2267 15.8718C21.3348 15.3074 20.3392 14.927 19.2983 14.7527C18.2574 14.5785 17.1921 14.6139 16.1651 14.857C16.0157 14.5013 15.8491 14.151 15.6653 13.8063C17.7432 13.2473 19.9527 13.45 21.8942 14.3779C22.0252 14.8722 22.1359 15.3701 22.2263 15.8718H22.2267ZM4.3693 32.6029C4.43611 32.6029 4.50212 32.5992 4.56853 32.598C4.75059 33.2276 4.99663 33.8369 5.30281 34.4164C5.94329 35.6713 6.88417 36.7483 8.04166 37.5515C7.56927 37.6652 7.09155 37.7614 6.60849 37.8399C5.68758 37.0089 4.91954 36.0228 4.33926 34.9265C4.2009 34.6696 4.07282 34.3978 3.94613 34.1035C4.06274 33.6003 4.18792 33.0996 4.32167 32.6014L4.3693 32.6029ZM3.92518 35.1475C4.47042 36.1781 5.17473 37.1162 6.01218 37.9275C5.50922 37.9923 5.00192 38.0368 4.49026 38.0611C4.1054 37.622 3.75217 37.1563 3.43323 36.6672C3.53561 36.0611 3.6511 35.4581 3.77971 34.8581C3.82754 34.9554 3.87517 35.0536 3.92518 35.1475ZM3.8894 38.0812C3.77259 38.0834 3.65598 38.087 3.53877 38.087C3.43263 38.087 3.3259 38.0854 3.21937 38.0836C3.25297 37.835 3.28736 37.5863 3.32531 37.3387C3.50557 37.5926 3.69195 37.8421 3.8894 38.0812ZM3.15592 38.5518C3.28387 38.5543 3.41155 38.5557 3.53897 38.556C6.03764 38.5565 8.5135 38.0806 10.8339 37.1537C10.761 37.5308 10.6937 37.9098 10.6319 38.2907C8.31043 39.1518 5.85408 39.5923 3.37808 39.5913C3.26581 39.5913 3.15276 39.5895 3.0399 39.5877C3.07469 39.2417 3.11336 38.8964 3.15592 38.5518ZM3.37848 40.0603C5.82281 40.0604 8.24893 39.6398 10.5506 38.8171C10.5111 39.0938 10.4706 39.3705 10.4366 39.65C8.02321 40.4788 5.48421 40.8822 2.93277 40.8422C2.95155 40.5797 2.97448 40.3181 2.9978 40.0564C3.12489 40.0585 3.25178 40.0603 3.37848 40.0603ZM3.28756 42.41C5.65653 42.4089 8.0118 42.0506 10.2739 41.3472C10.2497 41.6745 10.2299 42.003 10.2146 42.3327C7.9693 42.9975 5.6399 43.3353 3.29823 43.3358C3.14228 43.3358 2.98495 43.3338 2.82822 43.3308C2.83296 43.0217 2.84087 42.7132 2.85193 42.4052C2.99701 42.408 3.14209 42.41 3.28756 42.41ZM2.82901 44.762C5.32792 44.7134 7.81947 45.0491 10.2164 45.7574C10.23 46.0448 10.2455 46.3318 10.2658 46.6176C7.86683 45.8666 5.36324 45.5039 2.84976 45.5432C2.84067 45.2838 2.83375 45.0237 2.82901 44.7628V44.762ZM10.4301 48.3184C10.4737 48.6839 10.5228 49.0476 10.5775 49.4094C8.18997 48.5716 5.66974 48.1758 3.14031 48.2415L3.15217 48.7103C5.70865 48.6439 8.25477 49.0596 10.6574 49.9357C10.7194 50.31 10.787 50.6821 10.8602 51.0523C8.44476 50.0989 5.86209 49.6418 3.26621 49.7083L3.27807 50.1771C3.56407 50.1698 3.84889 50.1715 4.13311 50.1771C3.87616 50.4813 3.63424 50.8052 3.4018 51.1381C3.1832 49.8072 3.0256 48.4615 2.92902 47.1008C5.48106 47.0695 8.01914 47.4817 10.4301 48.3192V48.3184ZM3.54905 51.7526C3.89765 51.2119 4.28844 50.6996 4.71776 50.2206L4.69424 50.1992C5.2246 50.2256 5.75055 50.2739 6.27209 50.3443C5.3833 51.1794 4.63836 52.1554 4.06729 53.233C4.00128 53.3571 3.93842 53.482 3.87794 53.6067C3.73781 52.9823 3.61348 52.3534 3.50082 51.7215L3.54905 51.7526ZM4.12046 54.2011C4.22778 53.9536 4.34934 53.7018 4.48137 53.4531C5.08643 52.3097 5.8954 51.2864 6.8684 50.4338C7.33907 50.5129 7.80487 50.6083 8.26579 50.72C6.50628 51.9941 5.2373 53.8335 4.67092 55.9307H4.46971C4.30289 55.3418 4.14866 54.7489 4.00701 54.1518L4.12046 54.2011ZM5.85979 54.1845C6.56385 52.858 7.58532 51.7265 8.83305 50.8908L8.81546 50.8645C9.32474 51.0059 9.82631 51.1682 10.3202 51.3515C8.8454 52.0858 7.63894 53.2654 6.87156 54.7233C6.64884 55.1444 6.4641 55.5846 6.31952 56.0386C5.9345 55.9872 5.54513 55.9558 5.15338 55.9398C5.32724 55.3315 5.56406 54.7429 5.85999 54.1837L5.85979 54.1845ZM7.28584 54.9432C8.06899 53.4544 9.33654 52.2772 10.8791 51.6061L10.8594 51.5602C10.8989 51.5766 10.9394 51.5944 10.9793 51.6118C11.0584 51.9792 11.1428 52.3446 11.2325 52.708C9.97485 53.2819 8.94311 54.2569 8.299 55.4801C8.14865 55.7631 8.01987 56.057 7.91378 56.3594C7.54325 56.2608 7.16771 56.1788 6.78717 56.1133C6.92018 55.7096 7.08706 55.3179 7.28604 54.9422L7.28584 54.9432ZM8.71308 55.7C9.29532 54.5956 10.2196 53.7095 11.3476 53.1743C11.3549 53.2019 11.3608 53.23 11.3673 53.2577C10.7459 53.7587 10.2651 54.4125 9.97211 55.1551C9.741 55.7184 9.60938 56.3176 9.58314 56.9259C9.18506 56.7589 8.77884 56.612 8.366 56.4859C8.46241 56.2155 8.57848 55.9525 8.71327 55.6991L8.71308 55.7ZM13.4494 56.5662C13.7676 55.7809 14.7539 55.9254 14.763 55.9275C15.3362 56.056 15.6259 56.4843 15.8133 56.8431C15.8617 56.9562 15.9341 57.0574 16.0254 57.1399C16.1168 57.2223 16.2249 57.2839 16.3424 57.3204C16.8543 57.4564 18.6986 57.7455 21.6207 55.9459C23.9304 54.5228 24.9345 53.2239 25.2909 52.6667L26.6975 53.3624C26.0989 54.2921 25.3531 55.1183 24.4894 55.8088L24.2975 55.9696L24.4123 56.1922L24.5204 56.4011C24.4562 56.444 24.3783 56.4968 24.288 56.5592C23.0515 57.1354 19.8655 58.4919 17.0646 58.6045C14.507 58.7089 13.7243 58.0017 13.5083 57.6932C13.4033 57.5257 13.3428 57.3342 13.3325 57.1368C13.3222 56.9394 13.3625 56.7426 13.4496 56.5652L13.4494 56.5662ZM17.1277 60.1656C18.3114 60.1005 19.4843 59.9042 20.6247 59.5801C19.7728 60.4063 19.0152 61.3245 18.3658 62.3178C17.4937 63.6964 17.1312 64.7884 17.0415 65.6397C16.485 63.393 15.3292 61.3395 13.6972 59.6981C14.4746 60.0211 15.5722 60.2282 17.1279 60.1646L17.1277 60.1656ZM17.0498 71.7724C17.3174 71.817 17.5875 71.8444 17.8586 71.8545C17.9365 71.857 18.0137 71.8586 18.0912 71.8586C19.4141 71.8615 20.7037 71.4445 21.7744 70.6678L21.7731 70.6658C21.7997 70.6533 21.8268 70.6431 21.8533 70.63C22.0601 70.8205 22.2706 71.0069 22.4816 71.1927C22.4658 71.3311 22.4534 71.468 22.4344 71.6052C21.0943 72.5708 19.4702 73.0613 17.8197 72.9989C17.452 72.9857 17.0859 72.9456 16.7241 72.8791C16.8496 72.5138 16.9583 72.1446 17.05 71.7714L17.0498 71.7724ZM17.8028 73.4689C17.8997 73.4723 17.9963 73.474 18.0926 73.474C19.5963 73.4777 21.0694 73.0489 22.3362 72.2387C22.2512 72.7315 22.147 73.2215 22.0237 73.7086L22.0061 73.675C20.7044 74.3722 19.2358 74.6971 17.7615 74.6143C17.198 74.5943 16.6376 74.5219 16.0874 74.3982C16.262 74.0464 16.4193 73.6888 16.5592 73.3254C16.9695 73.405 17.3854 73.4527 17.803 73.4679L17.8028 73.4689ZM17.7451 75.0831C17.8777 75.0876 18.0085 75.0899 18.1375 75.0902C19.4307 75.1033 20.7096 74.8193 21.8756 74.2601C21.7418 74.7271 21.5879 75.189 21.4177 75.6482C20.2215 76.0423 18.9648 76.2203 17.7062 76.1739C17.4734 76.1664 17.2305 76.1468 16.9842 76.1213C16.5772 75.749 16.1763 75.3678 15.7817 74.9779C15.8097 74.9275 15.841 74.8781 15.8676 74.8275C16.4836 74.9743 17.1126 75.0596 17.7453 75.0821L17.7451 75.0831ZM22.909 71.5629C23.2021 71.8133 23.4992 72.0584 23.8002 72.2984C23.3975 74.8523 22.5226 77.3088 21.2202 79.5423C20.9375 79.3417 20.6567 79.1375 20.378 78.9296C21.7054 76.6674 22.566 74.1622 22.9092 71.5619L22.909 71.5629ZM24.2214 72.6338C24.4427 72.8054 24.6673 72.9728 24.8934 73.1394C24.4329 75.6461 23.5404 78.0537 22.2557 80.2548C22.0383 80.1096 21.8223 79.9603 21.6066 79.8109C22.9038 77.5954 23.7897 75.1636 24.2216 72.6328L24.2214 72.6338ZM26.2852 74.1188C26.5594 74.302 26.8362 74.4818 27.1154 74.6581C26.5589 77.0911 25.6324 79.4242 24.368 81.5759C24.1019 81.4198 23.8373 81.2607 23.5743 81.0986C24.8446 78.9312 25.7599 76.5744 26.2854 74.1178L26.2852 74.1188ZM29.7408 76.1652C29.9969 76.2983 30.2548 76.4286 30.5144 76.5562C28.6615 78.2491 27.0908 80.227 25.8617 82.4151C25.632 82.2926 25.4045 82.1657 25.177 82.0396C26.3892 79.8594 27.9283 77.878 29.741 76.1642L29.7408 76.1652ZM32.0626 77.265C32.3994 77.4099 32.7389 77.5504 33.0811 77.6863C31.1412 79.3432 29.5216 81.3419 28.3029 83.5831L28.7112 83.8052C28.2218 83.5878 27.7376 83.3597 27.2563 83.1247C28.5075 80.9079 30.1337 78.9249 32.0628 77.264L32.0626 77.265ZM33.5784 77.882C33.9326 78.016 34.2894 78.1444 34.649 78.2673C32.5949 79.8866 30.8909 81.9062 29.6402 84.2035C29.3302 84.0749 29.0218 83.9427 28.715 83.807C29.9469 81.5422 31.5973 79.5317 33.5786 77.882H33.5784ZM30.3974 83.8216C30.5015 84.0999 30.6181 84.3725 30.7409 84.6419C30.5193 84.5569 30.2993 84.4683 30.0793 84.3798C30.1827 84.191 30.2887 84.0046 30.3976 83.8206L30.3974 83.8216ZM30.7136 83.3077C30.9903 82.8747 31.283 82.4566 31.5902 82.0513C31.8739 83.182 32.3336 84.261 32.9526 85.2489C32.9983 85.322 33.0457 85.3922 33.0923 85.4635C32.5144 85.2797 31.9408 85.0841 31.3716 84.8767C31.116 84.369 30.896 83.8442 30.7132 83.306L30.7136 83.3077ZM33.3503 85.0004C32.6914 83.9485 32.2218 82.7893 31.9628 81.5753C32.2594 81.2085 32.5686 80.8542 32.8905 80.5126C33.1468 82.626 34.1048 84.5924 35.6112 86.0968C35.597 86.1217 35.5825 86.1468 35.5679 86.1715C34.98 86.0227 34.3959 85.8615 33.8157 85.6879C33.6572 85.4704 33.5003 85.2394 33.3499 84.9986L33.3503 85.0004ZM57.6554 85.8525C58.1154 85.3757 58.5247 84.8524 58.8767 84.2911C59.6373 83.1192 60.0988 81.7786 60.2207 80.3869C60.555 80.7338 60.8763 81.0945 61.1847 81.469C60.9243 82.6739 60.4561 83.8243 59.8011 84.8686C59.6588 85.0969 59.507 85.3167 59.3513 85.5289C58.818 85.6955 58.2813 85.852 57.741 85.9984C57.7114 85.9482 57.6841 85.8988 57.655 85.8507L57.6554 85.8525ZM58.4112 78.1425C58.7739 78.0141 59.1337 77.88 59.4908 77.7403C61.4877 79.3628 63.167 81.3409 64.4437 83.5748C64.1283 83.7197 63.8111 83.8605 63.4923 83.9972C62.2046 81.7267 60.4772 79.7357 58.411 78.1407L58.4112 78.1425ZM59.9889 77.5448C60.2484 77.4389 60.5056 77.3286 60.7619 77.2169C62.6918 78.8633 64.3223 80.8312 65.5814 83.0334C65.3458 83.1498 65.11 83.2662 64.8723 83.3783C63.6077 81.1559 61.9534 79.1793 59.9885 77.5431L59.9889 77.5448ZM62.3089 76.4973C62.6041 76.3515 62.8969 76.2022 63.1873 76.0492C65.0065 77.7431 66.5562 79.7051 67.7825 81.8673C67.5139 82.0201 67.2433 82.1687 66.9721 82.3155C65.7364 80.1401 64.1622 78.1754 62.3085 76.4951L62.3089 76.4973ZM63.6186 75.8186C64.1939 75.5049 64.7593 75.176 65.315 74.8317C65.7519 76.6404 66.3907 78.3943 67.2196 80.0603C66.1823 78.5149 64.9743 77.0912 63.6182 75.8164L63.6186 75.8186ZM65.7334 74.572C65.9764 74.4173 66.2173 74.2595 66.456 74.0988C66.9892 76.5409 67.9073 78.8827 69.1761 81.0363C68.9545 81.1737 68.7326 81.3101 68.5088 81.4433C67.2392 79.3068 66.3034 76.9889 65.7338 74.5698L65.7334 74.572ZM56.8891 78.1558C56.8833 77.7305 56.8244 77.3076 56.7138 76.8969C61.6804 75.322 66.2256 72.6421 70.008 69.0587C70.2737 69.2997 70.5643 69.5117 70.8749 69.6912C70.937 69.7269 71.0006 69.7574 71.0637 69.79C67.054 73.6433 62.2004 76.5078 56.8891 78.1558ZM70.5767 71.9671C71.832 72.7449 73.2794 73.157 74.7562 73.157C74.8501 73.157 74.9444 73.1556 75.0384 73.152C75.5579 73.1336 76.0742 73.0641 76.5801 72.9447C76.7307 73.3032 76.8983 73.656 77.0829 74.0029C75.0222 74.5477 72.8354 74.3504 70.9055 73.4454C70.7762 72.9562 70.6666 72.4635 70.5769 71.9671H70.5767ZM83.2951 65.0612C83.8289 64.1322 84.6098 63.3695 85.5511 62.8578C84.6662 64.696 83.652 66.469 82.516 68.1635C82.4792 67.0767 82.7493 66.0016 83.2953 65.0612H83.2951ZM85.8695 62.1804C84.609 62.7209 83.5587 63.6572 82.8776 64.8477C82.1965 66.0381 81.9216 67.418 82.0944 68.7786C81.7991 69.203 81.496 69.6228 81.1852 70.038C80.9112 69.0798 80.8318 68.0764 80.9518 67.087C81.0718 66.0976 81.3887 65.1422 81.8838 64.2772C82.3789 63.4122 83.0421 62.6551 83.8345 62.0506C84.6268 61.446 85.5322 61.0062 86.4973 60.7571C86.2966 61.2355 86.0865 61.7094 85.8697 62.1804H85.8695ZM86.7111 60.2265C85.6185 60.4584 84.5872 60.9186 83.6848 61.5767C82.7824 62.2349 82.0291 63.0763 81.4744 64.0457C80.9197 65.0152 80.5759 66.0909 80.4657 67.2024C80.3555 68.3139 80.4814 69.4361 80.8349 70.4956C80.5638 70.8474 80.2888 71.1969 80.006 71.5412C79.4572 70.2516 79.2143 68.8525 79.2963 67.4534C79.3784 66.0543 79.7831 64.6931 80.4789 63.4765C81.1747 62.2599 82.1426 61.2208 83.3069 60.4407C84.4712 59.6605 85.8002 59.1604 87.19 58.9795C87.0372 59.3977 86.8776 59.8134 86.7113 60.2265H86.7111ZM87.3673 58.4871C85.8613 58.6449 84.4143 59.1584 83.1458 59.9853C81.8772 60.8123 80.8235 61.929 80.0714 63.2433C79.3193 64.5576 78.8905 66.0319 78.8203 67.5446C78.7501 69.0572 79.0405 70.5649 79.6676 71.9432C79.4133 72.2463 79.1545 72.5458 78.8912 72.8417C78.0834 71.2657 77.6816 69.513 77.7222 67.7425C77.7628 65.972 78.2447 64.2395 79.124 62.7023C80.0033 61.165 81.2524 59.8714 82.7579 58.9388C84.2635 58.0062 85.978 57.4641 87.746 57.3615C87.625 57.7388 87.4987 58.1142 87.3669 58.4877L87.3673 58.4871ZM89.4575 38.2907C89.3543 38.2925 89.2509 38.2949 89.1478 38.2949C89.0525 38.2949 88.9576 38.2915 88.8623 38.2901C89.0383 38.0793 89.2069 37.8618 89.3695 37.6403C89.4011 37.8577 89.4294 38.0751 89.4577 38.2913L89.4575 38.2907ZM49.3068 0.596911C48.3948 1.15212 47.3479 1.44625 46.2802 1.44723C45.2125 1.4482 44.165 1.15599 43.252 0.602445C44.2699 0.53195 45.2941 0.495978 46.3245 0.494529C47.3242 0.494529 48.3183 0.528656 49.3068 0.596911ZM16.8551 11.9986C17.104 11.9723 17.3566 11.9532 17.608 11.9441C18.8489 11.899 20.0881 12.0712 21.2698 12.4526C21.4397 12.8938 21.5921 13.3391 21.727 13.7887C19.7332 12.9429 17.5114 12.7982 15.4247 13.3784C15.471 13.3316 15.5158 13.2837 15.5631 13.2373C15.9854 12.8133 16.4177 12.4022 16.8551 11.9986ZM11.8704 70.5701C11.5477 70.1533 11.2333 69.7313 10.9274 69.304C11.0558 67.9705 10.7558 66.6308 10.0709 65.4794C9.38599 64.3281 8.35192 63.425 7.11882 62.9015C6.89008 62.428 6.66989 61.9508 6.45827 61.4699C7.41278 61.7092 8.31052 62.135 9.09983 62.7227C9.88915 63.3104 10.5545 64.0483 11.0575 64.8941C11.5605 65.7399 11.8912 66.6768 12.0307 67.6509C12.1703 68.6251 12.1157 69.6171 11.8704 70.5701ZM10.488 68.6806C9.36109 67.0537 8.34745 65.3513 7.45424 63.5853C8.36941 64.0857 9.13363 64.8223 9.66723 65.7185C10.2008 66.6147 10.4843 67.6376 10.488 68.6806ZM12.2291 71.0251C12.5519 69.9683 12.6502 68.8557 12.5179 67.7587C12.3855 66.6616 12.0254 65.6044 11.4606 64.6546C10.8958 63.7049 10.1387 62.8837 9.23796 62.2436C8.33722 61.6035 7.31266 61.1588 6.22999 60.9378C6.05625 60.5263 5.88647 60.1132 5.72558 59.6964C7.10592 59.8624 8.42972 60.3431 9.59496 61.1014C10.7602 61.8598 11.7358 62.8756 12.4465 64.0704C13.1573 65.2653 13.5842 66.6074 13.6945 67.9933C13.8047 69.3792 13.5953 70.772 13.0824 72.0642C12.7922 71.7217 12.5078 71.3754 12.2291 71.0251ZM13.4219 72.463C14.0127 71.0806 14.2688 69.5782 14.1694 68.0781C14.07 66.578 13.6179 65.1226 12.8499 63.8302C12.0819 62.5378 11.0197 61.4449 9.74967 60.6404C8.47963 59.836 7.03763 59.3427 5.54098 59.2006C5.40275 58.8293 5.26967 58.456 5.14172 58.0806C6.90028 58.1637 8.61075 58.6818 10.1199 59.5883C11.6291 60.4949 12.8898 61.7616 13.7892 63.275C14.6886 64.7885 15.1986 66.5014 15.2734 68.2603C15.3483 70.0192 14.9856 71.7693 14.2181 73.3536C13.9485 73.0601 13.6831 72.7632 13.4219 72.463ZM14.5624 73.725C15.404 72.0557 15.8113 70.2011 15.7465 68.3328C15.6817 66.4644 15.147 64.6425 14.1918 63.0354C13.2366 61.4284 11.8917 60.088 10.2814 59.1383C8.67116 58.1886 6.84744 57.6601 4.97886 57.6016C4.84781 57.2018 4.72408 56.7996 4.6047 56.396C4.74464 56.396 4.88418 56.3981 5.02353 56.4027C5.0253 56.4039 5.02748 56.4047 5.02926 56.4059V56.4027C7.13321 56.4716 9.18445 57.0783 10.9874 58.1649C12.7903 59.2516 14.2849 60.7819 15.3285 62.6101C16.3721 64.4382 16.9301 66.5033 16.9491 68.6083C16.9682 70.7133 16.4477 72.7881 15.4374 74.6348C15.1409 74.3356 14.8492 74.0323 14.5624 73.725ZM17.6904 76.6408C17.8261 76.6458 17.9616 76.6482 18.0968 76.6481C19.1469 76.649 20.1917 76.5003 21.1999 76.2063C21.0092 76.6749 20.799 77.1374 20.5694 77.5938C20.0345 77.7027 19.4931 77.7764 18.9486 77.8144C18.4776 77.4316 18.0137 77.0379 17.557 76.6333C17.6012 76.6352 17.6469 76.6394 17.6904 76.6408ZM20.2923 78.1245C20.1982 78.2983 20.1009 78.4706 20.0019 78.6424C19.8272 78.5092 19.6525 78.3758 19.4795 78.2396C19.7514 78.2098 20.0223 78.1715 20.2923 78.1245ZM43.7094 87.4236C44.6019 86.8888 45.6214 86.6028 46.6618 86.5952C47.7023 86.5877 48.7258 86.8588 49.626 87.3805C48.5324 87.462 47.4321 87.503 46.3253 87.5037C45.4483 87.5037 44.5769 87.4748 43.7094 87.4236ZM62.7594 83.6716C62.8623 83.8392 62.9626 84.009 63.0614 84.18C62.8582 84.2646 62.6538 84.3454 62.4487 84.427C62.5604 84.178 62.664 83.9262 62.7594 83.6716ZM67.8477 73.1127C68.1434 72.8937 68.4355 72.6703 68.7241 72.4425C69.1834 74.9544 70.1004 77.3605 71.4295 79.5409C71.1196 79.7607 70.8074 79.9765 70.4929 80.1882C69.2101 77.9997 68.3152 75.606 67.8475 73.1127H67.8477ZM75.9678 75.8379L75.9632 75.7968C75.6891 75.8272 75.4098 75.848 75.1345 75.8579C73.9111 75.9016 72.6894 75.7339 71.523 75.3622C71.3557 74.924 71.2049 74.4814 71.0708 74.0341C72.2405 74.5219 73.4952 74.7731 74.7625 74.7734C74.8736 74.7734 74.9851 74.7714 75.0961 74.7676C75.8484 74.7409 76.5949 74.6258 77.3203 74.4247C77.3324 74.4445 77.3442 74.4654 77.3559 74.486C77.266 74.5775 77.178 74.6706 77.0871 74.7615C76.7199 75.1285 76.3453 75.4855 75.9676 75.8379H75.9678Z" fill="#E87722"/>
<path d="M69.4687 17.3686C69.0079 16.5432 67.994 15.5591 65.7894 15.5591H26.5557C24.6732 15.5591 23.0932 16.3766 22.3283 17.7457C21.6077 19.0348 21.6939 20.5873 22.5667 22.0055C23.4585 23.4554 43.776 53.7136 44.6407 55.0007L45.9419 56.9377L47.2385 54.9964C48.0686 53.7524 67.5894 24.5069 68.8401 22.4733C69.9996 20.5899 70.2282 18.7286 69.4687 17.3686Z" fill="#0C3695"/>
<path d="M66.1745 20.8369C65.135 22.5252 50.4252 44.5827 45.9306 51.3198C38.379 40.0707 25.8756 21.4233 25.2261 20.3676C25.0731 20.1176 24.8464 19.6435 25.0543 19.2709C25.255 18.91 25.8289 18.686 26.5525 18.686H65.7863C66.4162 18.686 66.6988 18.826 66.7366 18.8944C66.8413 19.0827 66.7846 19.8455 66.1745 20.8369Z" fill="white"/>
<path d="M79.7484 42.6046C79.6298 39.0569 78.5362 37.945 77.2702 36.6567C76.986 36.3675 76.6925 36.0687 76.3903 35.7196C75.6677 34.8869 72.2179 31.4618 67.8502 27.1238C62.2381 21.5514 55.2547 14.617 53.8887 12.9676C51.4016 9.96666 48.6843 8.4829 45.8113 8.55998C41.5025 8.67482 38.4759 12.3169 37.9916 12.9366C35.4852 15.4527 21.1209 30.4502 18.6874 33.0059C18.2852 33.4271 17.8605 33.8558 17.4501 34.2708C15.1341 36.608 12.7397 39.0257 12.8719 41.8162C12.967 43.8083 13.8902 45.6362 14.5393 46.6896C13.755 47.6474 12.7802 49.4358 12.8712 52.3559C12.9862 56.0334 15.5924 58.3398 16.8224 59.227C16.8688 60.7404 17.1517 64.2078 18.7198 66.2976C20.4258 68.5728 23.6273 69.5102 25.0565 69.828C25.6444 71.127 27.1833 73.952 30.0373 75.5953C33.0183 77.3117 36.2017 76.9727 37.5777 76.7053C38.6998 77.5884 41.497 79.3538 45.9368 79.3538C50.3268 79.3538 53.0354 77.5552 54.1579 76.6085C55.6322 76.9489 57.1612 76.9796 58.648 76.6984C60.1348 76.4173 61.547 75.8305 62.7952 74.9753C65.7893 72.9161 66.891 71.0236 67.2971 69.9154C68.8708 69.5019 72.2271 68.2265 73.7918 64.6498C74.9417 62.021 75.1753 60.2194 75.1536 59.1276C76.3039 58.5586 78.0126 57.2205 79.0485 54.1116C79.3907 53.0705 79.5198 51.9711 79.4281 50.879C79.3364 49.7869 79.0258 48.7245 78.5148 47.755C79.1303 46.8774 79.8379 45.2782 79.7484 42.6046Z" fill="#0C3695"/>
<path d="M75.1827 47.3264L76.2579 46.5818C76.2696 46.5732 77.3468 45.6402 77.2478 42.6881C77.1622 40.1157 76.6017 39.5455 75.4851 38.4109C75.1886 38.1091 74.8526 37.7672 74.4988 37.3587C73.8383 36.5969 70.0736 32.8577 66.0866 28.8992C60.1434 22.9963 53.4055 16.3065 51.9615 14.564C49.9945 12.1894 47.9517 11.01 45.8904 11.0596C42.5027 11.141 39.9571 14.4811 39.9336 14.5114L39.8789 14.5851L39.8141 14.6507C37.5294 16.9358 22.8643 32.2446 20.4978 34.7299C20.0786 35.1691 19.6457 35.6069 19.2263 36.0297C17.2893 37.9832 15.2889 40.0036 15.37 41.6963C15.4751 43.9205 17.1227 46.0508 17.1372 46.0701C17.1372 46.0701 17.9892 47.1481 18.01 47.1337L16.8573 47.881C16.7917 47.9261 15.2699 49.0446 15.37 52.2772C15.4733 55.5726 18.6533 57.4459 18.6812 57.4617C18.6812 57.4617 19.3255 57.8276 19.3255 57.8284L19.3147 58.5694C19.2975 59.7577 19.5153 63.1916 20.7192 64.797C22.0237 66.5345 25.0717 67.3307 26.1348 67.491C26.1348 67.491 26.877 67.5999 26.878 67.6026L27.1318 68.3102C27.1434 68.3444 28.3896 71.7618 31.2824 73.4278C34.1879 75.1001 37.5217 74.1546 37.5513 74.1463L38.2775 73.9288L38.8066 74.4714C38.8292 74.4951 41.1822 76.8531 45.9339 76.8531C50.5825 76.8531 52.7904 74.483 52.876 74.3904C52.876 74.3904 53.434 73.7579 53.4401 73.7591L54.2357 74.0399C55.4343 74.3971 56.6977 74.4815 57.9331 74.2868C59.1686 74.0922 60.3448 73.6235 61.3756 72.9151C64.6368 70.6741 65.0098 68.9 65.0351 68.7526L65.0901 67.7588L66.1103 67.6171C66.1499 67.6113 70.0145 67.0385 71.4975 63.6466C72.9574 60.3103 72.62 58.7702 72.598 58.6812L72.014 57.0447H73.6624C74.0217 56.9459 75.665 56.3452 76.6732 53.3206C76.9405 52.4961 77.0166 51.6215 76.8956 50.7632C76.7746 49.9049 76.4598 49.0855 75.9749 48.367L75.1827 47.3264ZM20.803 56.903L20.4178 56.6367L26.1423 48.3662L26.5283 48.6335L20.803 56.903ZM27.5704 66.782L27.1355 66.6053L32.4798 53.5L32.9146 53.6779L27.5704 66.782ZM31.0777 31.7481L30.7512 31.4098L37.7498 24.6669L38.0747 25.0053L31.0777 31.7481ZM38.9078 72.0725L38.4445 72.0021L40.6066 57.7529L41.0709 57.823L38.9078 72.0725ZM52.6938 71.5677L50.0233 55.9187L50.4848 55.8396L53.1563 71.4876L52.6938 71.5677ZM64.4145 66.4023L50.6738 33.4501L51.1064 33.2697L64.8466 66.2206L64.4145 66.4023ZM70.9255 56.5197L53.114 30.3112L53.5018 30.0481L71.3133 56.2567L70.9255 56.5197ZM74.0029 46.7524L55.5542 27.1595L55.8951 26.8379L74.3439 46.4306L74.0029 46.7524Z" fill="white"/>
<path d="M41.2211 10.841C39.4753 12.5327 33.9695 18.8566 33.9695 18.8566C33.9695 18.8566 32.6972 20.2561 34.351 21.9101C36.0047 23.564 35.9274 25.0814 36.8955 27.8896C38.1688 31.579 37.0224 35.1412 37.0224 35.1412C37.0224 35.1412 35.6232 31.8335 33.2056 30.5612C30.7879 29.289 26.9717 28.3986 22.9008 28.6527C18.83 28.9069 13.3495 29.6358 9.6683 29.3473C4.07062 28.9069 0 28.2713 0 28.2713C0 28.2713 0.890812 35.2681 5.08931 40.3574C9.28782 45.4467 12.0862 47.6098 18.3209 48.8821C24.5556 50.1544 31.0433 49.1363 31.0433 49.1363C31.0433 49.1363 29.3893 55.8792 37.2772 58.5514C45.165 61.2237 55.7241 54.6067 59.1595 51.4259C62.5949 48.2451 71.8827 35.5227 71.8827 35.5227C71.8827 35.5227 67.6834 38.0674 63.3588 38.7049C59.0342 39.3423 55.4704 38.1951 52.1627 37.9409C48.855 37.6868 46.6927 37.6868 46.6927 37.6868C46.6927 37.6868 50.8418 34.8568 53.8164 31.7066C56.4297 28.8875 58.1169 25.3357 58.6512 21.529C58.6512 21.529 58.0149 17.8388 54.5795 14.658C51.1442 11.4773 45.2925 6.89708 41.2211 10.8414" fill="#0C3695"/>
<path d="M57.6321 41.1204C51.7788 40.9931 51.9057 39.7206 46.9441 39.7206C41.9825 39.7206 38.2935 42.3918 38.2935 42.3918C38.2935 42.3918 42.6197 38.0668 46.6905 35.1406C50.7613 32.2144 53.9411 27.5067 55.0873 23.8176C56.2335 20.1284 56.6136 18.347 55.3421 16.9474C55.0308 16.5967 54.6397 16.326 54.2019 16.158C53.764 15.9901 53.2922 15.9299 52.8262 15.9825L51.3695 21.0829L50.9177 20.9538L52.4447 15.6107L52.4667 15.617C52.4807 15.1611 52.4048 14.7069 52.2432 14.2803C52.0817 13.8538 51.8376 13.4632 51.5251 13.131C51.2108 12.76 50.7842 12.5015 50.3098 12.3947C49.8354 12.288 49.3392 12.3388 48.8963 12.5394L48.3231 19.6383L47.8563 19.6005L48.4549 12.1757C48.1702 11.7763 47.7912 11.4534 47.3516 11.2356C46.912 11.0179 46.4254 10.9122 45.9351 10.9278C44.0529 10.9556 43.3049 12.0299 43.0259 12.6671L43.9959 19.4588L43.5309 19.524L42.5934 12.9561C42.1641 12.7513 41.2782 12.5624 40.2018 13.6392C38.6702 15.1702 39.6933 16.1829 39.6933 16.1829C39.5709 16.1124 39.4395 16.0588 39.3027 16.0236L41.1869 21.4499L40.7434 21.6039L38.7866 15.9619C38.2838 15.9756 37.6377 16.2106 37.0208 17.0737C35.7495 18.855 36.3848 20.2545 37.2756 21.3999C38.1664 22.5453 39.4387 24.9618 39.4387 29.7965C39.4387 34.6313 37.9116 36.9207 36.7663 38.4477C35.6209 39.9748 34.0948 41.7554 34.0948 41.7554C34.0948 41.7554 35.7495 36.7944 32.8233 33.9954C29.8971 31.1965 26.4617 31.0702 22.0084 31.1961C17.5552 31.322 14.7705 31.4503 9.79459 31.4503C3.81525 31.4503 2.54297 30.4322 2.54297 30.4322C3.47254 34.0304 5.26265 37.3488 7.75918 40.1017C15.3933 48.3712 26.9709 45.6422 26.9709 45.6422V45.9543C26.9709 45.9543 26.08 46.5901 25.9541 47.2268L25.8253 47.8624L25.6986 48.4987C25.6986 48.4987 26.3356 48.6264 27.0978 48.7536C27.8599 48.8809 29.8971 49.1351 30.9156 48.7536C31.9341 48.3722 33.7141 47.0999 33.7141 47.0999C33.7141 47.0999 32.0295 52.2052 34.7208 54.1659C38.2941 56.7688 41.1788 57.4157 47.8373 55.1146C58.141 51.5536 66.2842 40.1023 66.2842 40.1023C66.2842 40.1023 63.4843 41.2476 57.6321 41.1204ZM27.4794 47.863C27.3284 47.8631 27.1807 47.8184 27.0551 47.7345C26.9295 47.6506 26.8315 47.5314 26.7737 47.3919C26.7159 47.2523 26.7007 47.0988 26.7301 46.9506C26.7596 46.8025 26.8323 46.6664 26.9391 46.5596C27.0459 46.4528 27.182 46.3801 27.3302 46.3506C27.4783 46.3212 27.6319 46.3363 27.7714 46.3942C27.9109 46.452 28.0302 46.5499 28.114 46.6756C28.1979 46.8012 28.2426 46.9488 28.2425 47.0999C28.2424 47.3022 28.1619 47.4963 28.0189 47.6393C27.8758 47.7824 27.6818 47.8629 27.4794 47.863Z" fill="white"/>
<path d="M112.226 33H116.308V17.868H121.872V14.436H106.662V17.868H112.226V33ZM123.623 33H127.315V25.954C127.315 23.224 128.173 22.106 130.175 22.106C131.917 22.106 132.541 23.198 132.541 25.408V33H136.233V24.732C136.233 21.404 135.245 19.194 131.319 19.194C129.941 19.194 128.329 19.896 127.393 21.43H127.315V14.436H123.623V33ZM142.077 24.836C142.155 23.796 142.753 21.976 145.145 21.976C146.939 21.976 147.745 22.964 148.083 24.836H142.077ZM151.775 27.176C152.061 23.042 149.825 19.194 145.249 19.194C141.167 19.194 138.385 22.262 138.385 26.292C138.385 30.452 141.011 33.364 145.249 33.364C148.291 33.364 150.501 32.038 151.541 28.84H148.291C148.057 29.672 146.861 30.582 145.379 30.582C143.299 30.582 142.181 29.542 142.077 27.176H151.775ZM161.591 33H165.413V19.974H165.465L170.015 33H173.161L177.711 19.844H177.763V33H181.585V14.436H175.839L171.731 27.202H171.679L167.337 14.436H161.591V33ZM187.831 24.836C187.909 23.796 188.507 21.976 190.899 21.976C192.693 21.976 193.499 22.964 193.837 24.836H187.831ZM197.529 27.176C197.815 23.042 195.579 19.194 191.003 19.194C186.921 19.194 184.139 22.262 184.139 26.292C184.139 30.452 186.765 33.364 191.003 33.364C194.045 33.364 196.255 32.038 197.295 28.84H194.045C193.811 29.672 192.615 30.582 191.133 30.582C189.053 30.582 187.935 29.542 187.831 27.176H197.529ZM204.398 15.528H200.706V19.558H198.47V22.028H200.706V29.958C200.706 32.662 202.656 33.156 204.944 33.156C205.672 33.156 206.478 33.13 207.102 33.026V30.14C206.764 30.218 206.374 30.244 205.958 30.244C204.71 30.244 204.398 29.932 204.398 28.684V22.028H207.102V19.558H204.398V15.528ZM208.859 33H212.551V25.954C212.551 23.224 213.409 22.106 215.411 22.106C217.153 22.106 217.777 23.198 217.777 25.408V33H221.469V24.732C221.469 21.404 220.481 19.194 216.555 19.194C215.177 19.194 213.565 19.896 212.629 21.43H212.551V14.436H208.859V33ZM227.547 26.292C227.547 24.134 228.301 21.976 230.797 21.976C233.319 21.976 234.073 24.134 234.073 26.292C234.073 28.45 233.319 30.582 230.797 30.582C228.301 30.582 227.547 28.45 227.547 26.292ZM223.855 26.292C223.855 30.556 226.585 33.364 230.797 33.364C235.035 33.364 237.765 30.556 237.765 26.292C237.765 22.002 235.035 19.194 230.797 19.194C226.585 19.194 223.855 22.002 223.855 26.292ZM249.708 26.24C249.708 28.45 248.954 30.582 246.536 30.582C244.248 30.582 243.286 28.372 243.286 26.266C243.286 24.082 244.118 21.976 246.536 21.976C248.928 21.976 249.708 24.056 249.708 26.24ZM249.76 33H253.27V14.436H249.578V21.196H249.526C248.694 19.87 247.134 19.194 245.548 19.194C241.596 19.194 239.594 22.548 239.594 26.162C239.594 29.906 241.57 33.364 245.626 33.364C247.368 33.364 248.85 32.74 249.708 31.284H249.76V33ZM259.856 14.436H256.164V17.478H259.856V14.436ZM256.164 33H259.856V19.558H256.164V33ZM262.113 28.632C262.243 32.194 265.311 33.364 268.431 33.364C271.473 33.364 274.567 32.22 274.567 28.684C274.567 26.188 272.461 25.408 270.303 24.914C268.223 24.42 266.117 24.238 266.117 22.912C266.117 21.794 267.339 21.664 268.171 21.664C269.497 21.664 270.589 22.054 270.693 23.484H274.203C273.917 20.182 271.187 19.194 268.275 19.194C265.389 19.194 262.425 20.078 262.425 23.51C262.425 25.902 264.531 26.604 266.689 27.098C269.315 27.644 270.875 28.06 270.875 29.178C270.875 30.478 269.497 30.894 268.457 30.894C267.027 30.894 265.623 30.218 265.623 28.632H262.113ZM281.408 15.528H277.716V19.558H275.48V22.028H277.716V29.958C277.716 32.662 279.666 33.156 281.954 33.156C282.682 33.156 283.488 33.13 284.112 33.026V30.14C283.774 30.218 283.384 30.244 282.968 30.244C281.72 30.244 281.408 29.932 281.408 28.684V22.028H284.112V19.558H281.408V15.528ZM309.823 20.676C309.329 16.386 305.871 13.994 301.815 13.994C296.095 13.994 292.689 18.284 292.689 23.796C292.689 29.152 296.095 33.442 301.815 33.442C306.391 33.442 309.563 30.504 309.979 25.85H306.027C305.715 28.32 304.311 30.01 301.815 30.01C298.149 30.01 296.771 26.89 296.771 23.796C296.771 20.546 298.149 17.426 301.815 17.426C303.817 17.426 305.585 18.83 305.871 20.676H309.823ZM312.377 33H316.069V25.954C316.069 23.224 316.927 22.106 318.929 22.106C320.671 22.106 321.295 23.198 321.295 25.408V33H324.987V24.732C324.987 21.404 323.999 19.194 320.073 19.194C318.695 19.194 317.083 19.896 316.147 21.43H316.069V14.436H312.377V33ZM340.399 19.558H336.707V26.604C336.707 29.334 335.849 30.452 333.847 30.452C332.105 30.452 331.481 29.36 331.481 27.15V19.558H327.789V27.826C327.789 31.154 328.777 33.364 332.703 33.364C334.263 33.364 335.875 32.662 336.811 31.128H336.889V33H340.399V19.558ZM343.201 33H346.893V26.942C346.893 24.55 347.803 22.626 350.533 22.626C350.975 22.626 351.521 22.678 351.859 22.756V19.324C351.599 19.246 351.339 19.194 351.053 19.194C349.207 19.194 347.465 20.364 346.763 22.054H346.711V19.558H343.201V33ZM366.072 24.29C365.864 20.858 362.926 19.194 359.754 19.194C355.386 19.194 352.89 22.288 352.89 26.474C352.89 30.504 355.62 33.364 359.676 33.364C363.238 33.364 365.656 31.414 366.15 27.852H362.588C362.354 29.516 361.392 30.582 359.65 30.582C357.336 30.582 356.582 28.294 356.582 26.344C356.582 24.368 357.362 21.976 359.728 21.976C361.314 21.976 362.224 22.756 362.458 24.29H366.072ZM368.236 33H371.928V25.954C371.928 23.224 372.786 22.106 374.788 22.106C376.53 22.106 377.154 23.198 377.154 25.408V33H380.846V24.732C380.846 21.404 379.858 19.194 375.932 19.194C374.554 19.194 372.942 19.896 372.006 21.43H371.928V14.436H368.236V33ZM394.16 26.292C394.16 24.134 394.914 21.976 397.41 21.976C399.932 21.976 400.686 24.134 400.686 26.292C400.686 28.45 399.932 30.582 397.41 30.582C394.914 30.582 394.16 28.45 394.16 26.292ZM390.468 26.292C390.468 30.556 393.198 33.364 397.41 33.364C401.648 33.364 404.378 30.556 404.378 26.292C404.378 22.002 401.648 19.194 397.41 19.194C393.198 19.194 390.468 22.002 390.468 26.292ZM407.585 33H411.277V22.028H413.825V19.558H411.277V18.752C411.277 17.634 411.667 17.218 412.681 17.218C413.123 17.218 413.591 17.244 414.033 17.296V14.54C413.409 14.514 412.733 14.436 412.083 14.436C409.067 14.436 407.585 16.126 407.585 18.518V19.558H405.375V22.028H407.585V33ZM423.064 33H426.886V20.572H426.938L434.66 33H438.742V14.436H434.92V26.89H434.868L427.12 14.436H423.064V33ZM444.987 24.836C445.065 23.796 445.663 21.976 448.055 21.976C449.849 21.976 450.655 22.964 450.993 24.836H444.987ZM454.685 27.176C454.971 23.042 452.735 19.194 448.159 19.194C444.077 19.194 441.295 22.262 441.295 26.292C441.295 30.452 443.921 33.364 448.159 33.364C451.201 33.364 453.411 32.038 454.451 28.84H451.201C450.967 29.672 449.771 30.582 448.289 30.582C446.209 30.582 445.091 29.542 444.987 27.176H454.685ZM476.479 19.558H472.683L470.213 28.658H470.161L467.873 19.558H464.285L462.049 28.684H461.997L459.527 19.558H455.627L459.891 33H463.713L466.001 23.978H466.053L468.445 33H472.241L476.479 19.558ZM484.481 33H500.133V29.568H489.915L499.873 17.66V14.436H485.261V17.868H494.439L484.481 29.776V33ZM505.188 24.836C505.266 23.796 505.864 21.976 508.256 21.976C510.05 21.976 510.856 22.964 511.194 24.836H505.188ZM514.886 27.176C515.172 23.042 512.936 19.194 508.36 19.194C504.278 19.194 501.496 22.262 501.496 26.292C501.496 30.452 504.122 33.364 508.36 33.364C511.402 33.364 513.612 32.038 514.652 28.84H511.402C511.168 29.672 509.972 30.582 508.49 30.582C506.41 30.582 505.292 29.542 505.188 27.176H514.886ZM520.612 23.692C520.742 22.236 521.626 21.664 523.056 21.664C524.356 21.664 525.448 21.924 525.448 23.484C525.604 26.5 516.556 23.224 516.504 29.334C516.504 32.09 518.506 33.364 521.08 33.364C522.744 33.364 524.434 32.922 525.604 31.7C525.63 32.142 525.734 32.584 525.864 33H529.608C529.27 32.454 529.14 31.232 529.14 30.01V23.016C529.14 19.792 525.916 19.194 523.238 19.194C520.222 19.194 517.128 20.26 516.92 23.692H520.612ZM525.448 27.8C525.448 28.632 525.344 30.894 522.458 30.894C521.262 30.894 520.196 30.53 520.196 29.178C520.196 27.826 521.236 27.41 522.38 27.202C523.524 26.994 524.824 26.968 525.448 26.422V27.8ZM532.11 33H535.802V14.436H532.11V33ZM542.245 23.692C542.375 22.236 543.259 21.664 544.689 21.664C545.989 21.664 547.081 21.924 547.081 23.484C547.237 26.5 538.189 23.224 538.137 29.334C538.137 32.09 540.139 33.364 542.713 33.364C544.377 33.364 546.067 32.922 547.237 31.7C547.263 32.142 547.367 32.584 547.497 33H551.241C550.903 32.454 550.773 31.232 550.773 30.01V23.016C550.773 19.792 547.549 19.194 544.871 19.194C541.855 19.194 538.761 20.26 538.553 23.692H542.245ZM547.081 27.8C547.081 28.632 546.977 30.894 544.091 30.894C542.895 30.894 541.829 30.53 541.829 29.178C541.829 27.826 542.869 27.41 544.013 27.202C545.157 26.994 546.457 26.968 547.081 26.422V27.8ZM553.638 33H557.33V25.954C557.33 23.224 558.188 22.106 560.19 22.106C561.932 22.106 562.556 23.198 562.556 25.408V33H566.248V24.732C566.248 21.404 565.26 19.194 561.334 19.194C559.774 19.194 558.162 19.896 557.226 21.43H557.148V19.558H553.638V33ZM578.592 26.24C578.592 28.45 577.838 30.582 575.42 30.582C573.132 30.582 572.17 28.372 572.17 26.266C572.17 24.082 573.002 21.976 575.42 21.976C577.812 21.976 578.592 24.056 578.592 26.24ZM578.644 33H582.154V14.436H578.462V21.196H578.41C577.578 19.87 576.018 19.194 574.432 19.194C570.48 19.194 568.478 22.548 568.478 26.162C568.478 29.906 570.454 33.364 574.51 33.364C576.252 33.364 577.734 32.74 578.592 31.284H578.644V33Z" fill="white"/>
<path d="M106.516 52.456H111.94V67H114.94V52.456H120.388V49.864H106.516V52.456ZM121.455 59.704C121.527 57.856 122.823 56.416 124.719 56.416C126.591 56.416 127.719 57.976 127.839 59.704H121.455ZM130.575 61.504C131.031 57.784 128.631 54.256 124.719 54.256C121.023 54.256 118.719 57.28 118.719 60.808C118.719 64.648 120.879 67.336 124.791 67.336C127.479 67.336 129.831 65.824 130.407 63.112H127.815C127.335 64.48 126.399 65.176 124.791 65.176C122.511 65.176 121.455 63.448 121.455 61.504H130.575ZM139.647 67H142.647V59.272H150.447V67H153.447V49.864H150.447V56.68H142.647V49.864H139.647V67ZM165.415 52.024V50.464H158.503V52.024H165.415ZM167.047 57.856C167.047 55.24 164.503 54.256 162.079 54.256C159.319 54.256 156.631 55.192 156.439 58.384H159.175C159.295 57.04 160.375 56.416 161.911 56.416C162.991 56.416 164.479 56.656 164.479 58.096C164.479 59.728 162.751 59.464 160.759 59.848C158.455 60.112 155.983 60.616 155.983 63.712C155.983 66.136 157.999 67.336 160.231 67.336C161.695 67.336 163.447 66.88 164.527 65.824C164.743 66.952 165.511 67.336 166.639 67.336C167.095 67.336 167.959 67.168 168.367 67.024V65.128C168.223 65.152 168.103 65.176 167.983 65.176H167.695C167.191 65.176 167.047 64.912 167.047 64.24V57.856ZM164.311 62.824C164.311 64.552 162.439 65.176 161.239 65.176C160.279 65.176 158.719 64.84 158.719 63.592C158.719 62.152 159.775 61.72 160.951 61.528C162.175 61.312 163.471 61.336 164.311 60.784V62.824ZM169.991 67H172.727V59.68C172.727 57.856 173.903 56.416 175.727 56.416C177.359 56.416 178.079 57.256 178.151 59.2V67H180.887V58.48C180.887 55.672 179.207 54.256 176.495 54.256C174.863 54.256 173.447 55.096 172.775 56.224H172.727V49.864H169.991V67ZM183.844 52.456H186.58V49.864H183.844V52.456ZM183.844 67H186.58V54.592H183.844V67ZM199.457 67H202.553L206.057 53.896H206.105L209.537 67H212.585L217.313 49.864H214.265L211.073 62.968H211.025L207.665 49.864H204.593L201.137 62.968H201.089L197.993 49.864H194.945L199.457 67ZM220.619 59.704C220.691 57.856 221.987 56.416 223.883 56.416C225.755 56.416 226.883 57.976 227.003 59.704H220.619ZM229.739 61.504C230.195 57.784 227.795 54.256 223.883 54.256C220.187 54.256 217.883 57.28 217.883 60.808C217.883 64.648 220.043 67.336 223.955 67.336C226.643 67.336 228.995 65.824 229.571 63.112H226.979C226.499 64.48 225.563 65.176 223.955 65.176C221.675 65.176 220.619 63.448 220.619 61.504H229.739ZM230.571 56.632H232.635V63.952C232.707 66.016 233.187 67.12 236.067 67.12C236.667 67.12 237.243 67.048 237.843 66.976V64.864C237.459 64.96 237.075 64.96 236.691 64.96C235.467 64.96 235.371 64.384 235.371 63.256V56.632H237.843V54.592H235.371V50.872H232.635V54.592H230.571V56.632ZM241.947 59.704C242.019 57.856 243.315 56.416 245.211 56.416C247.083 56.416 248.211 57.976 248.331 59.704H241.947ZM251.067 61.504C251.523 57.784 249.123 54.256 245.211 54.256C241.515 54.256 239.211 57.28 239.211 60.808C239.211 64.648 241.371 67.336 245.283 67.336C247.971 67.336 250.323 65.824 250.899 63.112H248.307C247.827 64.48 246.891 65.176 245.283 65.176C243.003 65.176 241.947 63.448 241.947 61.504H251.067ZM253.147 67H255.883V61.096C255.883 58.336 257.395 56.848 259.243 56.848C259.627 56.848 260.035 56.896 260.419 56.968V54.328C260.155 54.304 260.035 54.256 259.387 54.256C257.731 54.256 256.075 55.672 255.763 56.992H255.715V54.592H253.147V67ZM261.657 52.456H264.393V49.864H261.657V52.456ZM261.657 67H264.393V54.592H261.657V67ZM277.766 57.856C277.766 55.24 275.222 54.256 272.798 54.256C270.038 54.256 267.35 55.192 267.158 58.384H269.894C270.014 57.04 271.094 56.416 272.63 56.416C273.71 56.416 275.198 56.656 275.198 58.096C275.198 59.728 273.47 59.464 271.478 59.848C269.174 60.112 266.702 60.616 266.702 63.712C266.702 66.136 268.718 67.336 270.95 67.336C272.414 67.336 274.166 66.88 275.246 65.824C275.462 66.952 276.23 67.336 277.358 67.336C277.814 67.336 278.678 67.168 279.086 67.024V65.128C278.942 65.152 278.822 65.176 278.702 65.176H278.414C277.91 65.176 277.766 64.912 277.766 64.24V57.856ZM275.03 62.824C275.03 64.552 273.158 65.176 271.958 65.176C270.998 65.176 269.438 64.84 269.438 63.592C269.438 62.152 270.494 61.72 271.67 61.528C272.894 61.312 274.19 61.336 275.03 60.784V62.824ZM280.71 67H283.446V59.68C283.446 57.856 284.622 56.416 286.446 56.416C288.078 56.416 288.798 57.256 288.87 59.2V67H291.606V58.48C291.606 55.672 289.926 54.256 287.214 54.256C285.582 54.256 284.19 55.096 283.35 56.464L283.302 56.416V54.592H280.71V67ZM304.883 57.856C304.883 55.24 302.339 54.256 299.915 54.256C297.155 54.256 294.467 55.192 294.275 58.384H297.011C297.131 57.04 298.211 56.416 299.747 56.416C300.827 56.416 302.315 56.656 302.315 58.096C302.315 59.728 300.587 59.464 298.595 59.848C296.291 60.112 293.819 60.616 293.819 63.712C293.819 66.136 295.835 67.336 298.067 67.336C299.531 67.336 301.283 66.88 302.363 65.824C302.579 66.952 303.347 67.336 304.475 67.336C304.931 67.336 305.795 67.168 306.203 67.024V65.128C306.059 65.152 305.939 65.176 305.819 65.176H305.531C305.027 65.176 304.883 64.912 304.883 64.24V57.856ZM302.147 62.824C302.147 64.552 300.275 65.176 299.075 65.176C298.115 65.176 296.555 64.84 296.555 63.592C296.555 62.152 297.611 61.72 298.787 61.528C300.011 61.312 301.307 61.336 302.147 60.784V62.824ZM320.194 67.336C324.154 67.336 326.458 64.6 326.458 60.784C326.458 57.016 324.154 54.256 320.194 54.256C316.234 54.256 313.93 57.016 313.93 60.784C313.93 64.6 316.234 67.336 320.194 67.336ZM320.194 65.176C317.746 65.176 316.666 62.944 316.666 60.784C316.666 58.648 317.746 56.416 320.194 56.416C322.642 56.416 323.722 58.648 323.722 60.784C323.722 62.944 322.642 65.176 320.194 65.176ZM333.805 67H336.901L338.509 62.464H345.349L346.957 67H350.173L343.573 49.864H340.381L333.805 67ZM341.917 52.816H341.989L344.557 60.184H339.325L341.917 52.816ZM357.108 67.336C361.068 67.336 363.372 64.6 363.372 60.784C363.372 57.016 361.068 54.256 357.108 54.256C353.148 54.256 350.844 57.016 350.844 60.784C350.844 64.6 353.148 67.336 357.108 67.336ZM357.108 65.176C354.66 65.176 353.58 62.944 353.58 60.784C353.58 58.648 354.66 56.416 357.108 56.416C359.556 56.416 360.636 58.648 360.636 60.784C360.636 62.944 359.556 65.176 357.108 65.176ZM364.399 56.632H366.463V63.952C366.535 66.016 367.015 67.12 369.895 67.12C370.495 67.12 371.071 67.048 371.671 66.976V64.864C371.287 64.96 370.903 64.96 370.519 64.96C369.295 64.96 369.199 64.384 369.199 63.256V56.632H371.671V54.592H369.199V50.872H366.463V54.592H364.399V56.632ZM375.775 59.704C375.847 57.856 377.143 56.416 379.039 56.416C380.911 56.416 382.039 57.976 382.159 59.704H375.775ZM384.895 61.504C385.351 57.784 382.951 54.256 379.039 54.256C375.343 54.256 373.039 57.28 373.039 60.808C373.039 64.648 375.199 67.336 379.111 67.336C381.799 67.336 384.151 65.824 384.727 63.112H382.135C381.655 64.48 380.719 65.176 379.111 65.176C376.831 65.176 375.775 63.448 375.775 61.504H384.895ZM397.367 57.856C397.367 55.24 394.823 54.256 392.399 54.256C389.639 54.256 386.951 55.192 386.759 58.384H389.495C389.615 57.04 390.695 56.416 392.231 56.416C393.311 56.416 394.799 56.656 394.799 58.096C394.799 59.728 393.071 59.464 391.079 59.848C388.775 60.112 386.303 60.616 386.303 63.712C386.303 66.136 388.319 67.336 390.551 67.336C392.015 67.336 393.767 66.88 394.847 65.824C395.063 66.952 395.831 67.336 396.959 67.336C397.415 67.336 398.279 67.168 398.687 67.024V65.128C398.543 65.152 398.423 65.176 398.303 65.176H398.015C397.511 65.176 397.367 64.912 397.367 64.24V57.856ZM394.631 62.824C394.631 64.552 392.759 65.176 391.559 65.176C390.599 65.176 389.039 64.84 389.039 63.592C389.039 62.152 390.095 61.72 391.271 61.528C392.495 61.312 393.791 61.336 394.631 60.784V62.824ZM400.311 67H403.047V61.096C403.047 58.336 404.559 56.848 406.407 56.848C406.791 56.848 407.199 56.896 407.583 56.968V54.328C407.319 54.304 407.199 54.256 406.551 54.256C404.895 54.256 403.239 55.672 402.927 56.992H402.879V54.592H400.311V67ZM414.015 67.336C417.975 67.336 420.279 64.6 420.279 60.784C420.279 57.016 417.975 54.256 414.015 54.256C410.055 54.256 407.751 57.016 407.751 60.784C407.751 64.6 410.055 67.336 414.015 67.336ZM414.015 65.176C411.567 65.176 410.487 62.944 410.487 60.784C410.487 58.648 411.567 56.416 414.015 56.416C416.463 56.416 417.543 58.648 417.543 60.784C417.543 62.944 416.463 65.176 414.015 65.176ZM432.945 57.856C432.945 55.24 430.401 54.256 427.977 54.256C425.217 54.256 422.529 55.192 422.337 58.384H425.073C425.193 57.04 426.273 56.416 427.809 56.416C428.889 56.416 430.377 56.656 430.377 58.096C430.377 59.728 428.649 59.464 426.657 59.848C424.353 60.112 421.881 60.616 421.881 63.712C421.881 66.136 423.897 67.336 426.129 67.336C427.593 67.336 429.345 66.88 430.425 65.824C430.641 66.952 431.409 67.336 432.537 67.336C432.993 67.336 433.857 67.168 434.265 67.024V65.128C434.121 65.152 434.001 65.176 433.881 65.176H433.593C433.089 65.176 432.945 64.912 432.945 64.24V57.856ZM430.209 62.824C430.209 64.552 428.337 65.176 427.137 65.176C426.177 65.176 424.617 64.84 424.617 63.592C424.617 62.152 425.673 61.72 426.849 61.528C428.073 61.312 429.369 61.336 430.209 60.784V62.824Z" fill="white"/>
</svg>
